<?xml version="1.0" encoding="UTF-8"?>
<svg width="212px" height="360px" viewBox="0 0 212 360" version="1.1" xmlns="http://www.w3.org/2000/svg"
     xmlns:xlink="http://www.w3.org/1999/xlink">
    <title>logo</title>
    <desc>Created by Old Hong with HEART</desc>
    <g  transform="translate(-614.000000, -80.000000)" fill="#000000">
        <g id="logo" transform="translate(614.000000, 80.000000)">
            <path d="M153.82195,305.195187 C154.198383,305.770234 153.711758,307.496054 153.051973,308.023577 C151.644112,309.147193 149.910466,310.476522 148.245947,310.568177 C142.479674,310.883876 136.686024,310.701246 130.902641,310.722971 C130.353048,310.725687 129.803455,310.834993 129.157359,310.904922 C132.192096,315.47339 130.561797,319.984149 128.967774,325.4196 L162.434742,325.4196 C162.238313,326.60975 162.290329,328.139362 161.731155,329.402836 C158.031842,337.764442 152.458577,340.309721 145.862782,336.894064 C136.629901,332.114451 126.809785,331.984777 116.966397,332.563219 C111.072822,332.909469 104.991714,333.868108 100.399912,338.422318 C98.9133434,339.896937 97.1687464,340.7517 95.29274,339.096487 C93.3879877,337.415476 92.1628686,335.463575 93.9978096,332.955636 C95.4905385,330.917512 96.630789,328.324708 98.6231475,327.041545 C100.23702,326.001436 102.884372,326.463103 105.077267,326.403358 C108.821066,326.30152 112.576501,326.139936 116.310035,326.334787 C118.970391,326.473287 120.127068,325.17383 120.35635,322.941534 C120.66571,319.921688 120.74784,316.87129 120.767004,313.832435 C120.777271,312.154139 119.979232,311.010155 117.993034,311.386278 C112.487526,312.426387 106.983388,313.471248 101.47788,314.514073 L101.52579,315.496473 L101.52579,315.496473 C101.000837,315.10134 100.451244,314.734722 99.9550368,314.307001 C96.0182295,310.916464 96.1900199,308.599981 100.609346,305.839484 C101.061066,305.557052 101.725642,305.261042 102.180099,305.38189 C110.523229,307.612829 118.836928,305.112358 127.168423,305.185003 C135.065992,305.254253 142.969722,304.280678 150.877557,303.909308 C151.881608,303.862462 153.32232,304.433436 153.82195,305.195187 Z M73.3718001,318.255002 C76.3873726,319.37726 77.1286039,322.522028 76.58654,325.36807 C75.5373179,330.878202 74.0931831,336.348278 68.2002917,339.008295 C68.0291857,339.085692 67.7732111,338.979102 67.3317576,338.937687 C65.8869383,335.66664 64.6433398,332.576865 66.2873264,328.614675 C67.413204,325.901702 67.0135004,322.5648 67.4241548,318.113786 C68.8593921,318.113786 71.3705441,317.510224 73.3718001,318.255002 Z M54.9521685,318.111817 C61.9565646,321.469087 62.3199938,322.303483 58.0546629,328.025439 C55.8186494,331.024917 53.1028547,333.777268 50.1748884,336.11276 C49.0223183,337.031342 46.0970898,337.281864 45.040339,336.472589 C43.0425051,334.943656 44.2354563,330.857902 45.9896352,329.280087 C48.439189,327.076985 50.5266824,324.460419 52.6360775,321.911745 C53.5833204,320.766403 54.2068307,319.358318 54.9521685,318.111817 Z M87.5450593,315.932545 C93.4844915,317.517828 96.0380778,324.870555 92.3243927,329.764227 C91.3148672,331.094235 89.0904889,331.517204 87.4068057,332.365856 C83.8676487,330.710644 83.1373682,328.120556 83.6103053,324.76668 C83.7998908,323.414267 83.0641349,321.951869 82.8704429,320.524096 C82.7171319,319.395048 82.3167438,317.503571 82.7800989,317.236075 C84.1824838,316.426121 86.137199,315.556422 87.5450593,315.932545 Z M71.8902957,268.621513 C72.2208726,269.551636 71.9258858,271.216353 71.2305109,271.897991 C68.4476426,274.6259 65.3793694,277.064589 62.4869933,279.687265 C61.9599867,280.164548 61.7615037,280.997585 60.8963917,282.650082 C64.8147196,283.277406 68.4004173,284.762888 71.5556124,284.13149 C75.6998002,283.301168 76.2350198,280.913399 74.7799342,276.574407 C78.6250287,272.49069 80.8932101,272.418724 84.600051,276.261424 C87.723078,279.498525 86.8586504,282.476957 82.7856427,284.423426 C79.4463376,286.020251 76.3130442,288.13781 73.330324,290.347023 C69.6659175,293.059996 66.1671416,296.012628 62.7682916,299.050805 C61.0154815,300.618436 61.4309269,303.188157 63.5779653,303.87251 C67.7426858,305.200482 71.9772176,305.569137 75.9619346,303.038794 C78.0822804,301.692491 78.604496,299.945625 77.0912343,297.969961 C75.6956936,296.148413 74.9955278,294.958262 78.1028131,294.345874 C79.1759901,294.134051 80.4339616,292.203196 80.9794476,292.44625 C83.5001815,293.569866 86.0708783,294.900554 88.0413352,296.762837 C88.7866731,297.46688 88.4670035,300.092272 87.745664,301.336736 C86.2981071,303.834491 84.5192889,306.298299 82.3558244,308.189777 C80.1807247,310.091438 77.450557,312.393663 74.8271595,312.572898 C67.0979583,313.103137 59.428302,312.259915 52.6285488,307.785818 C48.4761479,305.053835 48.605504,302.706122 52.6586634,299.738553 C55.8186494,297.426144 59.1901225,295.003071 60.5254339,290.649143 C58.545395,290.325976 56.8069578,289.847336 55.0575699,289.803885 C52.874257,289.75025 52.1898329,288.938259 51.0865413,286.862794 C48.7245938,282.418569 51.4978802,280.425254 53.9638602,278.074146 C56.2491522,275.895485 59.1257866,274.219226 61.0216413,271.773069 C63.1775772,268.990846 65.8776302,267.875377 69.0581489,267.512833 C69.9978632,267.405563 71.6610137,267.976536 71.8902957,268.621513 Z M127.972758,286.572758 C128.108958,288.781292 127.834504,291.070618 127.374571,293.249279 C126.711364,296.389294 123.594497,298.421987 120.81642,297.453844 C118.101309,296.507427 118.312796,294.207917 118.588619,291.785523 C118.775467,290.145926 118.149904,288.414674 117.787843,286.079182 C119.56187,285.317431 121.743814,284.087224 124.09002,283.457184 C126.421853,282.830539 127.842717,284.455879 127.972758,286.572758 Z M100.330854,285.924931 C102.829686,286.472142 105.330572,287.127302 107.69252,288.082546 C108.213366,288.293011 108.562423,289.974023 108.327665,290.791445 C107.265439,294.491571 103.462094,296.878661 98.5917325,297.105421 C97.0599914,297.177387 95.5220905,297.116963 94.0218329,297.116963 C95.6678728,293.590641 97.1154297,290.374587 98.6889207,287.221672 C98.9818542,286.635762 99.8873473,285.827166 100.330854,285.924931 Z M140.434204,285.180493 C144.560597,285.832258 148.537101,287.425009 152.714825,288.700704 C152.436265,293.191096 151.406891,294.37242 146.68368,295.128739 C146.242227,295.199347 145.802827,295.316122 145.377115,295.457338 C139.8148,297.304685 135.713047,294.468827 136.257164,288.641638 C136.383098,287.297372 139.19129,284.984284 140.434204,285.180493 Z M151.362951,270.182015 C153.815927,271.109423 154.320347,273.401464 153.916537,275.850337 C153.518887,278.261189 151.737331,278.231317 149.756608,278.662432 C146.145586,279.450661 143.221042,279.289077 140.802972,276.136163 C140.466235,275.696221 138.861945,276.309288 137.851051,276.267195 C126.495771,275.793986 115.237679,276.014636 104.300582,279.74735 C101.980385,280.539652 99.3864173,280.689015 96.9012734,280.822084 C94.1054011,280.972126 92.5271191,278.542942 93.848742,276.085923 C95.2894547,273.407575 96.878003,271.071403 100.784696,271.292053 C104.593516,271.506592 108.455721,270.785577 112.294655,270.475988 C112.314504,270.738731 112.335036,271.000116 112.355569,271.262859 C123.12772,270.484814 133.894395,269.615794 144.675443,269.003406 C146.887502,268.877127 149.274773,269.393108 151.362951,270.182015 Z M140.520373,167.287148 C144.686462,167.390344 147.197614,171.140031 146.411211,175.448472 C145.748004,179.081384 145.04031,182.708866 144.490033,186.35943 C143.964395,189.841622 144.635815,190.694348 148.222882,190.538196 C153.633254,190.301931 159.025831,189.665102 164.436204,189.464141 C165.749614,189.415938 167.10272,190.405128 168,190.748662 C165.495692,193.784802 163.13306,196.432599 161.023665,199.267099 C158.953967,202.048643 156.872633,203.258482 153.218493,201.70443 C150.289158,200.458607 146.918369,200.214874 143.727584,199.607918 C143.147877,199.497932 142.065118,199.607239 141.933709,199.916148 C140.525848,203.234041 139.262402,206.612358 137.902451,210.120349 C143.998616,210.575906 146.979968,215.687511 145.387997,221.366695 C143.104074,221.74757 141.004945,222.165786 138.8846,222.422419 C137.887394,222.543267 136.827221,222.477412 135.838228,222.282561 C129.760542,221.085621 123.742401,219.201612 117.612699,218.73655 C108.351757,218.034545 98.9655649,217.733782 89.8682,220.418241 C87.8423047,221.015692 85.9272861,222.044259 84.0396445,223.023265 C81.5387589,224.320007 78.3664533,222.748981 78.9222057,220.103221 C79.4225197,217.720883 80.6455855,215.22177 82.2601419,213.390717 C85.64941,209.545981 89.0674238,205.857397 89.6327581,200.011198 C83.065709,200.748507 77.4109973,203.130166 72.6042869,207.437927 C68.9877901,204.527388 69.3950224,202.449886 71.3004591,198.891655 C73.8916886,194.052976 78.6600712,195.062534 82.412084,193.477929 C84.5426962,192.577679 87.0470039,192.58311 89.3370869,191.999916 C90.1946703,191.781982 91.5744692,191.057572 91.5765225,190.557206 C91.5833668,189.352119 91.1597082,187.973907 90.4554359,186.982681 C89.7408971,185.975839 88.4822412,185.349194 87.5500556,184.624784 C88.7977607,181.7801 90.625173,180.821462 93.3238572,181.041433 C94.6304228,181.148023 96.0239102,180.382199 97.3044677,180.552609 C98.3338415,180.689072 99.57744,181.43996 100.113344,182.295402 C100.517154,182.940378 100.055168,184.211999 99.7944025,185.153664 C99.4035963,186.565823 98.8512661,187.93453 98.3673783,189.321568 C99.6623086,189.718058 100.947657,190.404449 102.253538,190.445184 C104.391679,190.512397 106.558566,190.26527 108.685756,189.959076 C112.166052,189.45871 113.354897,187.393429 111.632886,184.271066 C109.990268,181.293992 111.825209,179.718213 113.741596,178.458134 C116.990558,176.321566 122.372869,177.622381 124.853221,180.704687 C123.412509,183.26694 121.991644,185.795246 120.123851,189.117891 C125.3419,189.415938 129.434072,189.700406 133.531719,189.809713 C133.977279,189.821254 134.734252,188.87891 134.864977,188.276028 C135.624003,184.77211 136.434361,181.253935 136.760832,177.69842 C136.837487,176.863346 135.239357,175.271952 134.19561,175.056734 C131.335402,174.467429 128.356788,174.179566 125.430875,174.218265 C119.494181,174.297699 113.550642,174.537358 107.630374,174.980015 C104.606588,175.206096 101.642347,176.151156 98.6192463,176.484507 C97.6042454,176.596529 95.786415,176.049997 95.5708215,175.401626 C95.1464785,174.121858 95.0321797,172.084412 95.7877839,171.219465 C97.1764804,169.630109 98.7691352,168.576421 101.653983,168.65925 C109.586458,168.887368 117.548363,167.966749 125.50274,167.608278 C130.504511,167.382197 135.519971,167.163584 140.520373,167.287148 Z M71.1099838,188.897106 C71.4706753,189.189721 71.8327357,189.482336 72.1941116,189.775631 C71.1578935,191.916951 70.3078388,194.174368 69.0471297,196.176509 C66.4819082,200.252079 63.65729,204.166066 61.0078844,208.190716 C57.2168594,213.949334 52.7906889,215.449752 47.5774306,212.656666 C44.7603411,211.147422 43.3387923,208.116035 44.6686283,204.61076 C45.5871254,202.186328 46.2975576,199.32535 50.4602248,199.373554 C56.8732785,199.447556 61.768964,195.305452 66.8152227,191.914236 C68.2675706,190.939303 69.6795375,189.903947 71.1099838,188.897106 Z M100.036689,198.216127 C98.8136228,198.271799 97.1203576,199.158471 96.5509167,200.166671 C95.0732452,202.780521 94.186916,205.715502 92.9015675,208.446806 C91.7106696,210.977149 92.6866584,211.700201 95.155376,211.654034 C99.023741,211.584105 102.894159,211.642493 106.762524,211.595647 C110.086087,211.556948 111.484366,208.965502 109.716498,206.134397 C109.253143,205.391656 108.635793,204.743285 108.109471,204.076584 C111.259875,200.584208 115.244592,199.747776 118.730364,201.827314 C120.717931,203.013391 121.845178,204.410613 119.784377,206.620505 C118.911736,207.556739 118.408,208.830397 117.727682,209.964876 C124.594509,213.311962 129.961763,209.167142 131.971232,198.597003 C127.757233,198.303708 123.848487,197.831178 119.937003,197.806737 C113.303565,197.765323 106.662598,197.911291 100.036689,198.216127 Z M74.1073507,171.053197 C73.8376876,172.836047 73.9649905,174.417936 73.3551686,175.635922 C69.5326601,183.269723 58.4388301,188.026931 50.2154748,185.715201 C46.9699358,184.802729 45.0172739,182.187521 45.2075438,179.008129 C45.3923383,175.912243 47.1964802,174.297766 50.1162333,175.118583 C58.5921411,177.5016 66.3021784,175.646106 74.1073507,171.053197 Z M102.289539,153.35479 C102.453801,153.350098 102.627644,153.631171 102.796013,153.779855 C102.482547,155.192692 102.482547,155.192692 97.1255592,158.594771 C96.744335,157.918565 96.3672173,157.24779 95.6348836,155.947654 C95.2995158,157.19755 95.1462048,157.769202 94.9299267,158.574404 C94.2578223,158.07947 93.6254144,157.614408 92.9163511,157.092317 C91.5475029,158.585945 90.919886,162.455123 88.116485,158.518732 C87.2027789,160.691962 81.1449413,163.834693 79.3216355,162.984003 C78.5304413,162.615349 77.3853998,161.14684 77.5346043,160.922796 C79.136841,158.521448 80.6897993,154.629866 82.7848214,154.282258 C89.1609162,153.223818 95.7697151,153.545627 102.289539,153.35479 Z M56.4669359,147.891088 C58.931547,148.826643 61.3503018,149.882367 63.7759007,150.917044 C66.1789137,151.942217 68.5709758,152.989115 71.4852536,154.250552 C71.3709547,159.898506 62.6712402,163.66245 56.5490668,161.075078 C53.2371387,159.675819 52.1167365,150.685532 54.9365637,148.334424 C55.3191567,148.014652 56.0631257,147.737651 56.4669359,147.891088 Z M119.603689,140.588126 C121.738407,141.890298 122.474848,143.379854 120.64812,145.495375 C120.062937,146.173618 119.482546,146.906175 119.12733,147.712735 C118.852191,148.340059 118.745421,149.176491 118.939113,149.805173 C119.019875,150.065879 120.084154,150.138524 120.693292,150.112046 C127.259656,149.824862 133.822599,149.464354 140.389648,149.205685 C142.938443,149.105204 145.496821,149.162913 148.047669,149.24031 C150.352125,149.310239 151.413667,152.650536 149.554087,155.119097 L149.34661,155.395837 C147.892814,157.340207 146.378017,159.379982 142.892587,158.010627 C135.724614,155.195136 128.107658,155.359436 120.520133,155.74099 C119.097899,155.812277 117.649658,155.380482 116.213736,155.181558 L116.115864,155.515588 L116.115864,155.515588 C112.433662,156.030211 108.752145,156.544834 105.164394,157.046557 C103.362305,154.306427 103.959807,152.241146 106.995228,152.110114 C110.670586,151.951925 110.092932,149.972188 109.468052,147.847841 C109.029337,146.353533 108.230614,144.963779 107.601628,143.545511 C111.061392,139.525612 115.947495,138.358545 119.603689,140.588126 Z M106.507371,22.8870517 C108.138353,25.1315685 109.128031,26.9008397 108.157517,29.8935287 C107.140463,33.0308282 106.957722,36.5123412 106.874222,39.855354 C106.51969,54.0176709 106.295199,68.1840613 106.121356,82.3504517 C106.074815,86.1517371 107.54222,87.6290717 111.299024,87.3025102 C119.748923,86.5665585 128.189926,85.6758126 136.606289,84.6228043 C139.711521,84.2337819 142.120693,82.784283 143.27737,79.3502946 C144.288949,76.3433482 143.558668,74.3507116 141.324708,72.531879 C139.695095,71.2045861 137.463188,70.0035728 138.938806,67.4521832 C140.578686,64.6163252 143.707873,63.7126798 146.585876,64.7290263 C147.942405,65.2083453 149.37422,65.5097868 150.793031,65.77864 C152.827824,66.1642678 154.605958,66.3706601 155.077526,69.1508465 C155.415631,71.1455199 157.341601,72.8312837 157.938418,74.8361409 C159.777466,81.0143328 152.111916,92.2538897 145.654375,93.4277462 C136.917702,95.0164241 128.191295,95.2812037 119.286937,95.2038066 C107.596289,95.1012894 95.8864778,96.6173226 84.1917235,97.529794 C74.4352583,98.2908658 64.6630512,99.406335 54.972975,97.2677301 C52.5590113,96.7347761 50.3688542,95.200412 47.8296409,94.0109403 C53.3892177,90.3705595 53.6007048,89.9761057 51.6234036,88.1912193 C51.0491718,89.2354016 50.4769932,91.1995235 49.8575894,91.2151387 C48.428512,91.2497638 46.6038374,91.9863944 45.5149186,89.7187942 C42.103749,82.6118368 48.1253121,66.6951849 56.9803909,66.0990913 C59.3553424,65.9395445 62.6364715,67.3571341 64.0730776,69.1664617 C65.0689147,70.4211099 63.7486606,73.6208702 63.1627936,75.8748919 C63.0252244,76.4024144 61.6331058,76.9917189 60.882977,76.9163585 C56.3247126,76.458765 57.1248044,80.1371654 56.9947638,82.347736 C56.8469282,84.8543167 57.5381965,87.286895 61.2710454,87.4926084 C67.5869109,87.8402165 73.8610264,89.1233795 80.1721009,89.2965046 C85.7747965,89.45062 91.404869,88.6311609 97.3819445,88.2170184 C97.3819445,72.6948203 97.4702352,57.6315737 97.3367725,42.5703639 C97.2861251,36.8511233 97.5523661,31.0986156 95.2027382,25.5158385 C94.7756576,24.5008498 97.5140383,21.2345551 99.4044176,20.4347848 C101.8615,19.3953549 104.571819,20.2222821 106.507371,22.8870517 Z M145.186229,78.1234822 C142.837285,81.1813477 143.520341,84.4951669 143.929626,88.2767635 C145.103414,87.216966 145.822743,86.5679164 146.205336,86.222345 C143.378665,83.5799798 147.311366,80.5825383 145.186229,78.1234822 Z"
                  id="title"></path>
            <rect id="矩形" x="16" y="0" width="4" height="360"></rect>
            <rect id="矩形备份-3" x="0" y="0" width="8" height="360"></rect>
            <rect id="矩形备份" x="192" y="0" width="4" height="360"></rect>
            <rect id="矩形备份-2" x="204" y="0" width="8" height="360"></rect>
        </g>
    </g>
</svg>
