<?xml version="1.0" encoding="UTF-8"?>
<svg width="40px" height="40px" viewBox="0 0 40 40" version="1.1" xmlns="http://www.w3.org/2000/svg" xmlns:xlink="http://www.w3.org/1999/xlink">
    <!-- Generator: Sketch 60 (88103) - https://sketch.com -->
    <title>神</title>
    <desc>Created with Sketch.</desc>
    <g id="页面-1" stroke="none" stroke-width="1" fill="none" fill-rule="evenodd">
        <g id="home" transform="translate(-157.000000, -854.000000)" fill="#000000" fill-rule="nonzero">
            <g id="编组-6" transform="translate(57.000000, 583.000000)">
                <g id="nav-god" transform="translate(0.000000, 15.000000)">
                    <path d="M128.463158,295.992496 C128.77193,296.020011 129.038596,295.97186 129.263158,295.848044 C129.487719,295.724228 129.677193,295.579777 129.831579,295.414689 C129.985965,295.249601 130.126316,295.077635 130.252632,294.89879 C130.378947,294.719945 130.512281,294.589251 130.652632,294.506707 C130.708772,294.369134 130.849123,294.08023 131.073684,293.639996 C131.298246,293.199762 131.438596,292.910859 131.494737,292.773286 C131.494737,292.057906 131.487719,291.459463 131.473684,290.977957 C131.459649,290.496451 131.452632,290.090611 131.452632,289.760435 C131.452632,289.43026 131.445614,289.161992 131.431579,288.955633 C131.417544,288.749273 131.410526,288.563549 131.410526,288.398462 L131.410526,288.398462 L131.494737,287.573023 C131.494737,287.270362 131.473684,286.761342 131.431579,286.045962 C131.389474,285.330582 131.326316,284.739018 131.242105,284.271269 C131.242105,283.693462 131.270175,283.239471 131.326316,282.909296 C131.382456,282.57912 131.522807,282.331489 131.747368,282.166401 C131.97193,282.001313 132.315789,281.898133 132.778947,281.856861 C133.242105,281.81559 133.880702,281.794954 134.694737,281.794954 C134.750877,281.877497 134.821053,281.96692 134.905263,282.063221 C134.989474,282.159522 135.031579,282.235187 135.031579,282.290217 L135.031579,282.290217 L135.031579,284.188725 C135.059649,284.271269 135.101754,284.395085 135.157895,284.560173 C135.214035,284.72526 135.284211,284.890348 135.368421,285.055436 C135.452632,285.220523 135.536842,285.364975 135.621053,285.488791 C135.705263,285.612607 135.817544,285.674515 135.957895,285.674515 C136.322807,285.674515 136.680702,285.523184 137.031579,285.220523 C137.382456,284.917863 137.698246,284.57393 137.978947,284.188725 C138.259649,283.803521 138.491228,283.438952 138.673684,283.095019 C138.85614,282.751087 138.961404,282.537848 138.989474,282.455304 C138.989474,282.262702 138.996491,282.063221 139.010526,281.856861 C139.024561,281.650502 139.045614,281.389113 139.073684,281.072695 C139.101754,280.756277 139.122807,280.343558 139.136842,279.834537 C139.150877,279.325517 139.157895,278.658287 139.157895,277.832849 C139.157895,277.750305 139.150877,277.585217 139.136842,277.337586 C139.122807,277.089954 139.101754,276.828565 139.073684,276.553419 C139.045614,276.278273 139.024561,276.010005 139.010526,275.748616 C138.996491,275.487228 138.989474,275.315261 138.989474,275.232717 C138.933333,275.150174 138.905263,275.026358 138.905263,274.86127 C138.905263,274.778726 138.947368,274.448551 139.031579,273.870744 C139.115789,273.292937 139.157895,272.756402 139.157895,272.261139 L139.157895,272.261139 L139.157895,271.786512 C139.157895,271.552637 139.164912,271.305006 139.178947,271.043617 C139.192982,270.782228 139.221053,270.541475 139.263158,270.321358 C139.305263,270.101241 139.354386,269.963668 139.410526,269.908639 L139.410526,269.908639 L139.410526,267.803771 C139.438596,267.721227 139.487719,267.60429 139.557895,267.452959 C139.62807,267.301629 139.698246,267.14342 139.768421,266.978332 C139.838596,266.813245 139.894737,266.655035 139.936842,266.503705 C139.978947,266.352375 140,266.249195 140,266.194166 C140,265.781446 139.929825,265.471907 139.789474,265.265547 C139.649123,265.059188 139.473684,264.873464 139.263158,264.708376 C139.052632,264.543289 138.835088,264.371322 138.610526,264.192477 C138.385965,264.013632 138.175439,263.759122 137.978947,263.428947 C137.922807,263.373917 137.761404,263.236344 137.494737,263.016227 C137.22807,262.79611 137.052632,262.658537 136.968421,262.603508 C136.715789,262.603508 136.484211,262.713567 136.273684,262.933684 C136.063158,263.1538 135.845614,263.387675 135.621053,263.635306 C135.396491,263.882938 135.129825,264.116812 134.821053,264.336929 C134.512281,264.557046 134.133333,264.667104 133.684211,264.667104 C133.684211,264.667104 133.6,264.680862 133.431579,264.708376 C133.263158,264.735891 133.073684,264.756527 132.863158,264.770284 C132.652632,264.784042 132.45614,264.797799 132.273684,264.811556 C132.091228,264.825313 131.97193,264.832192 131.915789,264.832192 C131.410526,264.832192 131.129825,264.63959 131.073684,264.254385 C131.017544,263.869181 130.989474,263.483976 130.989474,263.098771 C130.989474,263.016227 131.017544,262.906169 131.073684,262.768596 C131.129825,262.631023 131.157895,262.520964 131.157895,262.43842 C131.157895,262.300847 131.087719,262.122002 130.947368,261.901885 C130.807018,261.681768 130.792982,261.530438 130.905263,261.447894 C130.905263,261.255292 130.947368,261.097083 131.031579,260.973267 C131.115789,260.849451 131.214035,260.732514 131.326316,260.622456 C131.438596,260.512397 131.550877,260.388581 131.663158,260.251008 C131.775439,260.113435 131.859649,259.93459 131.915789,259.714473 C131.915789,259.631929 131.957895,259.563143 132.042105,259.508114 C132.126316,259.453084 132.210526,259.384298 132.294737,259.301754 C132.378947,259.21921 132.463158,259.109152 132.547368,258.971579 C132.631579,258.834006 132.673684,258.641403 132.673684,258.393772 C132.673684,258.173655 132.435088,257.960416 131.957895,257.754057 C131.480702,257.547697 130.989474,257.348216 130.484211,257.155614 C130.175439,256.935497 129.838596,256.687865 129.473684,256.412719 C129.108772,256.137573 128.687719,256 128.210526,256 C128.070175,256 127.94386,256.075665 127.831579,256.226996 C127.719298,256.378326 127.614035,256.557171 127.515789,256.763531 C127.417544,256.96989 127.340351,257.183129 127.284211,257.403245 C127.22807,257.623362 127.2,257.78845 127.2,257.898509 C127.2,258.036082 127.270175,258.173655 127.410526,258.311228 C127.550877,258.448801 127.649123,258.586374 127.705263,258.723947 C127.929825,259.741988 128.02807,260.732514 128,261.695526 C127.97193,262.658537 127.957895,263.539005 127.957895,264.336929 C127.817544,264.474502 127.677193,264.570803 127.536842,264.625832 C127.396491,264.680862 127.284211,264.777163 127.2,264.914736 C127.14386,264.914736 127.024561,264.900979 126.842105,264.873464 C126.659649,264.845949 126.526316,264.832192 126.442105,264.832192 C126.385965,264.832192 126.266667,264.845949 126.084211,264.873464 C125.901754,264.900979 125.705263,264.928493 125.494737,264.956008 C125.284211,264.983522 125.087719,265.011037 124.905263,265.038552 C124.722807,265.066066 124.603509,265.079824 124.547368,265.079824 C124.463158,265.134853 124.336842,265.162368 124.168421,265.162368 C123.887719,265.162368 123.564912,265.059188 123.2,264.852828 C122.835088,264.646468 122.680702,264.502017 122.736842,264.419473 C122.512281,264.226871 122.287719,263.999875 122.063158,263.738486 C121.838596,263.477097 121.698246,263.291374 121.642105,263.181315 L121.642105,263.181315 L120.757895,263.181315 L120.505263,263.428947 L120.505263,263.428947 L120.505263,264.316293 C120.505263,264.522653 120.631579,264.722134 120.884211,264.914736 L120.884211,264.914736 L120.884211,267.556139 C120.940351,267.693712 120.975439,267.817528 120.989474,267.927587 C121.003509,268.037645 121.010526,268.161461 121.010526,268.299034 C121.010526,268.354063 120.968421,268.519151 120.884211,268.794297 C120.8,269.069443 120.757895,269.234531 120.757895,269.28956 C120.785965,269.454648 120.82807,269.605978 120.884211,269.743551 C120.912281,269.881124 120.940351,270.00494 120.968421,270.114999 C120.996491,270.225057 121.010526,270.321358 121.010526,270.403902 L121.010526,270.403902 L121.011368,274.141488 C121.013614,274.181109 121.020351,274.255948 121.031579,274.366007 C121.045614,274.50358 121.059649,274.648032 121.073684,274.799362 L121.094737,275.021199 L121.094737,275.021199 L121.115789,275.232717 C121.129825,275.37029 121.136842,275.452834 121.136842,275.480349 L121.136842,275.480349 L121.136842,281.960041 C121.136842,282.015071 121.157895,282.17328 121.2,282.434668 C121.242105,282.696057 121.263158,282.868024 121.263158,282.950567 C121.263158,283.005597 121.242105,283.122534 121.2,283.301379 C121.157895,283.480224 121.136842,283.610918 121.136842,283.693462 C121.136842,283.831035 121.157895,284.037395 121.2,284.312541 C121.242105,284.587687 121.263158,284.821561 121.263158,285.014164 C121.263158,285.234281 121.235088,285.468155 121.178947,285.715787 C121.122807,285.963418 121.108772,286.114748 121.136842,286.169778 C121.136842,286.444924 121.221053,286.72007 121.389474,286.995216 C121.557895,287.270362 121.810526,287.407935 122.147368,287.407935 C122.42807,287.407935 122.673684,287.28412 122.884211,287.036488 C123.094737,286.788857 123.270175,286.479317 123.410526,286.10787 C123.550877,285.736422 123.65614,285.351218 123.726316,284.952256 C123.796491,284.553294 123.831579,284.202483 123.831579,283.899822 L123.831579,283.899822 L123.831579,283.218835 C123.831579,282.984961 123.817544,282.757965 123.789474,282.537848 L123.789474,282.537848 L124.168421,282.207673 C124.842105,282.207673 125.459649,282.180158 126.021053,282.125129 C126.582456,282.0701 127.2,282.042585 127.873684,282.042585 C128.042105,282.042585 128.196491,282.0701 128.336842,282.125129 C128.477193,282.180158 128.575439,282.207673 128.631579,282.207673 C128.631579,283.363287 128.617544,284.518901 128.589474,285.674515 C128.561404,286.830129 128.519298,287.985742 128.463158,289.141356 C128.407018,290.214426 128.308772,291.266861 128.168421,292.298659 C128.02807,293.330457 127.957895,294.396648 127.957895,295.497233 C127.957895,295.552262 128.02807,295.648563 128.168421,295.786136 C128.308772,295.923709 128.407018,295.992496 128.463158,295.992496 Z M106.610526,261.695526 C107.031579,261.695526 107.480702,261.654254 107.957895,261.57171 C108.435088,261.489166 108.912281,261.447894 109.389474,261.447894 C110.652632,261.447894 111.915789,261.413501 113.178947,261.344714 C114.442105,261.275928 115.705263,261.117719 116.968421,260.870087 C117.305263,260.870087 117.642105,260.876966 117.978947,260.890723 C118.315789,260.904481 118.617544,260.883845 118.884211,260.828815 C119.150877,260.773786 119.368421,260.643092 119.536842,260.436732 C119.705263,260.230372 119.775439,259.907076 119.747368,259.466842 C119.747368,259.411813 119.642105,259.315511 119.431579,259.177938 C119.221053,259.040365 119.115789,258.944064 119.115789,258.889035 C119.031579,258.778976 118.933333,258.620767 118.821053,258.414408 C118.708772,258.208048 118.582456,258.015446 118.442105,257.836601 C118.301754,257.657756 118.154386,257.499547 118,257.361974 C117.845614,257.2244 117.670175,257.155614 117.473684,257.155614 C117.333333,257.155614 117.192982,257.251915 117.052632,257.444517 C116.912281,257.63712 116.764912,257.857237 116.610526,258.104868 C116.45614,258.3525 116.308772,258.586374 116.168421,258.806491 C116.02807,259.026608 115.915789,259.164181 115.831579,259.21921 C115.635088,259.329269 115.431579,259.398055 115.221053,259.42557 C115.010526,259.453084 114.792982,259.466842 114.568421,259.466842 L114.568421,259.466842 L113.810526,259.466842 C113.277193,259.466842 112.645614,259.535628 111.915789,259.673201 C111.185965,259.810774 110.37193,259.879561 109.473684,259.879561 L109.473684,259.879561 L108.315789,259.879561 C107.824561,259.879561 107.354386,259.893318 106.905263,259.920833 C106.45614,259.948348 106.077193,260.003377 105.768421,260.085921 C105.459649,260.168464 105.347368,260.29228 105.431579,260.457368 C105.431579,260.925116 105.557895,261.248413 105.810526,261.427258 C106.063158,261.606103 106.329825,261.695526 106.610526,261.695526 Z M112.421053,293.846356 C112.757895,293.846356 113.017544,293.72254 113.2,293.474909 C113.382456,293.227277 113.515789,292.924616 113.6,292.566926 C113.684211,292.209236 113.733333,291.824032 113.747368,291.411312 C113.761404,290.998593 113.768421,290.627146 113.768421,290.29697 C113.768421,290.021824 113.775439,289.774193 113.789474,289.554076 C113.803509,289.333959 113.824561,289.113842 113.852632,288.893725 C113.880702,288.673608 113.901754,288.446612 113.915789,288.212738 C113.929825,287.978864 113.936842,287.710596 113.936842,287.407935 C113.936842,286.995216 113.929825,286.534346 113.915789,286.025326 C113.901754,285.516306 113.852632,285.014164 113.768421,284.518901 C113.768421,284.463871 113.754386,284.36757 113.726316,284.229997 C113.698246,284.092424 113.684211,283.996123 113.684211,283.941094 L113.684211,283.941094 L113.684211,277.089954 C113.684211,277.034925 113.642105,276.917988 113.557895,276.739143 C113.473684,276.560298 113.431579,276.429603 113.431579,276.347059 C113.431579,276.29203 113.445614,276.051277 113.473684,275.624801 C113.501754,275.198324 113.515789,274.65491 113.515789,273.99456 C113.515789,273.884501 113.522807,273.774443 113.536842,273.664384 C113.550877,273.554326 113.57193,273.402995 113.6,273.210393 C113.62807,273.017791 113.649123,272.742645 113.663158,272.384955 C113.677193,272.027264 113.684211,271.532001 113.684211,270.899165 C113.6,270.651534 113.424561,270.424538 113.157895,270.218178 C112.891228,270.011819 112.757895,269.784823 112.757895,269.537192 C112.757895,269.399619 112.905263,269.28956 113.2,269.207016 C113.494737,269.124472 113.831579,269.062564 114.210526,269.021293 C114.589474,268.980021 114.975439,268.952506 115.368421,268.938749 C115.761404,268.924991 116.042105,268.918113 116.210526,268.918113 C116.463158,269.000657 116.736842,268.973142 117.031579,268.835569 C117.326316,268.697996 117.642105,268.642967 117.978947,268.670481 C118.035088,268.670481 118.161404,268.691117 118.357895,268.732389 C118.554386,268.773661 118.680702,268.794297 118.736842,268.794297 C118.933333,268.794297 119.17193,268.753025 119.452632,268.670481 C119.733333,268.587937 119.873684,268.42285 119.873684,268.175218 C119.873684,268.120189 119.761404,267.941344 119.536842,267.638683 C119.312281,267.336022 119.059649,267.012726 118.778947,266.668793 C118.498246,266.32486 118.224561,266.015321 117.957895,265.740174 C117.691228,265.465028 117.529825,265.327455 117.473684,265.327455 L117.473684,265.327455 L117.347368,265.327455 C116.926316,265.602601 116.610526,265.919019 116.4,266.27671 C116.189474,266.6344 116,266.854516 115.831579,266.93706 C115.298246,267.239721 114.757895,267.404809 114.210526,267.432323 C113.663158,267.459838 113.094737,267.50111 112.505263,267.556139 C111.859649,267.556139 111.249123,267.597411 110.673684,267.679955 C110.098246,267.762499 109.333333,267.803771 108.378947,267.803771 C107.564912,267.803771 106.715789,267.845043 105.831579,267.927587 C104.947368,268.01013 103.97193,268.051402 102.905263,268.051402 L102.905263,268.051402 L102.778947,268.175218 C102.807018,268.285277 102.807018,268.457243 102.778947,268.691117 C102.750877,268.924991 102.757895,269.158866 102.8,269.39274 C102.842105,269.626614 102.940351,269.826095 103.094737,269.991183 C103.249123,270.156271 103.522807,270.2113 103.915789,270.156271 C103.97193,270.156271 104.049123,270.10812 104.147368,270.011819 C104.245614,269.915518 104.294737,269.839852 104.294737,269.784823 C105.221053,269.784823 105.957895,269.757309 106.505263,269.702279 C107.052632,269.64725 107.340351,269.592221 107.368421,269.537192 L107.368421,269.537192 L108.715789,269.537192 C108.74386,269.537192 108.842105,269.523434 109.010526,269.49592 L109.010526,269.49592 L109.515789,269.413376 C109.684211,269.385861 109.838596,269.358347 109.978947,269.330832 C110.119298,269.303317 110.203509,269.28956 110.231579,269.28956 C110.624561,269.28956 110.849123,269.323953 110.905263,269.39274 C110.961404,269.461526 111.045614,269.633493 111.157895,269.908639 C111.157895,269.963668 111.2,270.087484 111.284211,270.280086 C111.368421,270.472689 111.410526,270.596504 111.410526,270.651534 C111.410526,270.706563 111.382456,270.789107 111.326316,270.899165 C111.298246,270.954194 111.270175,270.995466 111.242105,271.022981 C111.242105,271.958478 111.270175,272.673858 111.326316,273.169121 C111.382456,273.664384 111.410526,274.022074 111.410526,274.242191 L111.410526,274.242191 L111.411368,276.525354 C111.413614,276.78069 111.420351,276.996404 111.431579,277.172498 C111.445614,277.392615 111.466667,277.461401 111.494737,277.378858 C111.494737,277.516431 111.466667,277.667761 111.410526,277.832849 C111.410526,278.135509 111.438596,278.369384 111.494737,278.534471 C111.550877,278.699559 111.550877,278.79586 111.494737,278.823375 C111.494737,278.878404 111.480702,279.00222 111.452632,279.194822 C111.424561,279.387425 111.396491,279.593784 111.368421,279.813901 C111.340351,280.034018 111.312281,280.240378 111.284211,280.43298 C111.25614,280.625582 111.242105,280.749398 111.242105,280.804427 C111.242105,281.739924 111.249123,282.647907 111.263158,283.528374 C111.277193,284.408842 111.298246,285.303067 111.326316,286.21105 C111.354386,287.119032 111.375439,288.054529 111.389474,289.017541 C111.403509,289.980552 111.410526,291.01235 111.410526,292.112935 C111.410526,292.278023 111.382456,292.484382 111.326316,292.732014 C111.270175,292.979645 111.242105,293.15849 111.242105,293.268549 C111.242105,293.51618 111.375439,293.67439 111.642105,293.743176 C111.908772,293.811963 112.168421,293.846356 112.421053,293.846356 Z M132.981895,271.788988 L132.715789,271.786512 C132.266667,271.772754 131.859649,271.765876 131.494737,271.765876 C131.438596,271.710846 131.340351,271.648938 131.2,271.580152 C131.059649,271.511365 130.989474,271.408186 130.989474,271.270613 L130.989474,271.270613 L130.989474,267.432323 C130.989474,267.212206 131.094737,267.047119 131.305263,266.93706 C131.515789,266.827002 131.754386,266.751337 132.021053,266.710065 C132.287719,266.668793 132.554386,266.641278 132.821053,266.627521 C133.087719,266.613764 133.291228,266.593128 133.431579,266.565613 C133.515789,266.538098 133.607018,266.503705 133.705263,266.462433 C133.803509,266.421161 133.880702,266.414283 133.936842,266.441797 C134.105263,266.441797 134.301754,266.483069 134.526316,266.565613 C134.750877,266.648157 134.975439,266.689429 135.2,266.689429 L135.2,266.689429 L135.368421,266.93706 L135.368421,270.156271 C135.368421,270.624019 135.235088,270.97483 134.968421,271.208705 C134.701754,271.442579 134.37193,271.600788 133.978947,271.683332 C133.585965,271.765876 133.164912,271.800269 132.715789,271.786512 L132.981895,271.788988 Z M126.863158,272.384955 L124.168421,272.384955 L123.789474,272.137323 L123.789474,271.270613 C123.789474,270.555232 123.831579,269.949911 123.915789,269.454648 C124,268.959385 124.042105,268.36782 124.042105,267.679955 C124.042105,267.597411 124.084211,267.514867 124.168421,267.432323 C124.196491,267.377294 124.238596,267.336022 124.294737,267.308508 L124.294737,267.308508 L127.957895,267.308508 C128.154386,267.363537 128.280702,267.563018 128.336842,267.906951 C128.392982,268.250883 128.414035,268.636088 128.4,269.062564 C128.385965,269.489041 128.364912,269.894882 128.336842,270.280086 C128.308772,270.665291 128.322807,270.912922 128.378947,271.022981 C128.378947,271.380671 128.252632,271.697089 128,271.972235 C127.747368,272.247381 127.368421,272.384955 126.863158,272.384955 L126.863158,272.384955 Z M117.473684,289.388988 C117.810526,289.388988 118.077193,289.237658 118.273684,288.934997 C118.470175,288.632336 118.617544,288.281525 118.715789,287.882563 C118.814035,287.483601 118.884211,287.07776 118.926316,286.665041 C118.968421,286.252322 118.989474,285.922146 118.989474,285.674515 C118.989474,284.078667 118.947368,282.462183 118.863158,280.825063 C118.778947,279.187944 118.736842,277.530188 118.736842,275.851796 C118.849123,275.851796 118.898246,275.604165 118.884211,275.108902 C118.870175,274.613638 118.863158,274.159647 118.863158,273.746928 C118.863158,273.609355 118.905263,273.444267 118.989474,273.251665 C119.073684,273.059063 119.115789,272.893975 119.115789,272.756402 C119.115789,272.5638 119.094737,272.384955 119.052632,272.219867 C119.010526,272.054779 118.863158,271.862177 118.610526,271.64206 C118.582456,271.587031 118.540351,271.490729 118.484211,271.353156 C118.42807,271.215583 118.357895,271.07801 118.273684,270.940437 C118.189474,270.802864 118.091228,270.692806 117.978947,270.610262 C117.866667,270.527718 117.740351,270.500203 117.6,270.527718 C117.291228,270.747835 116.982456,270.933558 116.673684,271.084889 C116.364912,271.236219 116.210526,271.545759 116.210526,272.013507 C116.210526,272.316168 116.252632,272.605071 116.336842,272.880218 C116.421053,273.155364 116.463158,273.444267 116.463158,273.746928 C116.463158,274.132133 116.484211,274.510459 116.526316,274.881906 C116.568421,275.253353 116.589474,275.659194 116.589474,276.099428 C116.589474,276.264516 116.561404,276.422725 116.505263,276.574055 C116.449123,276.725385 116.435088,276.869837 116.463158,277.00741 C116.463158,277.062439 116.477193,277.303192 116.505263,277.729669 C116.533333,278.156145 116.561404,278.665166 116.589474,279.25673 C116.617544,279.848294 116.645614,280.460495 116.673684,281.093331 C116.701754,281.726167 116.715789,282.262702 116.715789,282.702936 C116.715789,283.198199 116.687719,283.720977 116.631579,284.271269 C116.575439,284.821561 116.561404,285.28931 116.589474,285.674515 C116.589474,285.729544 116.596491,285.860238 116.610526,286.066598 C116.624561,286.272958 116.638596,286.534346 116.652632,286.850764 C116.666667,287.167183 116.680702,287.497358 116.694737,287.841291 C116.708772,288.185223 116.715789,288.50852 116.715789,288.811181 C116.85614,289.196386 117.108772,289.388988 117.473684,289.388988 Z M100.378947,294.093987 C100.547368,294.093987 100.757895,294.025201 101.010526,293.887628 C101.263158,293.750055 101.536842,293.591846 101.831579,293.413001 C102.126316,293.234156 102.4,293.048432 102.652632,292.85583 C102.905263,292.663227 103.115789,292.49814 103.284211,292.360567 C103.368421,292.278023 103.494737,292.167964 103.663158,292.030391 C103.831579,291.892818 103.985965,291.755245 104.126316,291.617672 C104.294737,291.480099 104.477193,291.315011 104.673684,291.122409 L104.673684,291.122409 L104.673684,290.627146 C104.926316,290.627146 105.108772,290.60651 105.221053,290.565238 C105.333333,290.523966 105.424561,290.462058 105.494737,290.379514 C105.564912,290.29697 105.642105,290.19379 105.726316,290.069975 C105.810526,289.946159 105.936842,289.801707 106.105263,289.636619 C106.414035,289.361473 106.673684,289.127599 106.884211,288.934997 C107.094737,288.742394 107.277193,288.536035 107.431579,288.315918 C107.585965,288.095801 107.719298,287.855048 107.831579,287.593659 C107.94386,287.33227 108.070175,286.995216 108.210526,286.582497 C108.210526,286.36238 108.294737,286.00469 108.463158,285.509427 C108.631579,285.014164 108.715789,284.518901 108.715789,284.023638 C108.715789,282.868024 108.757895,281.423506 108.842105,279.690085 C108.926316,277.956664 108.968421,276.099428 108.968421,274.118375 C108.968421,273.815715 108.954386,273.574962 108.926316,273.396117 C108.898246,273.217272 108.842105,273.07282 108.757895,272.962761 C108.673684,272.852703 108.540351,272.749523 108.357895,272.653222 C108.175439,272.556921 107.929825,272.426226 107.621053,272.261139 C107.480702,272.068536 107.333333,271.930963 107.178947,271.848419 C107.024561,271.765876 106.750877,271.738361 106.357895,271.765876 C106.217544,271.958478 106.161404,272.068536 106.189474,272.096051 C106.217544,272.123566 106.217544,272.137323 106.189474,272.137323 C106.498246,272.71513 106.645614,273.341087 106.631579,274.015196 C106.617544,274.689304 106.610526,275.356533 106.610526,276.016884 C106.610526,276.044399 106.617544,276.1407 106.631579,276.305787 C106.645614,276.470875 106.652632,276.656599 106.652632,276.862958 C106.652632,277.069318 106.659649,277.26192 106.673684,277.440765 C106.687719,277.61961 106.694737,277.72279 106.694737,277.750305 C106.694737,277.777819 106.680702,277.874121 106.652632,278.039208 C106.624561,278.204296 106.596491,278.39002 106.568421,278.596379 C106.540351,278.802739 106.512281,278.995341 106.484211,279.174186 C106.45614,279.353031 106.442105,279.456211 106.442105,279.483726 C106.442105,280.171591 106.42807,280.708126 106.4,281.093331 C106.37193,281.478535 106.350877,281.788075 106.336842,282.021949 C106.322807,282.255823 106.301754,282.448426 106.273684,282.599756 C106.245614,282.751087 106.231579,282.923053 106.231579,283.115655 C106.231579,283.583404 106.168421,284.023638 106.042105,284.436357 C105.915789,284.849076 105.852632,285.261795 105.852632,285.674515 C105.768421,286.142263 105.684211,286.582497 105.6,286.995216 C105.515789,287.407935 105.347368,287.848169 105.094737,288.315918 C105.094737,288.370947 105.024561,288.487884 104.884211,288.666729 C104.74386,288.845574 104.673684,288.976269 104.673684,289.058812 C104.533333,289.333959 104.385965,289.629741 104.231579,289.946159 C104.077193,290.262577 103.887719,290.462058 103.663158,290.544602 C103.438596,290.682175 103.235088,290.833505 103.052632,290.998593 C102.870175,291.163681 102.680702,291.342526 102.484211,291.535128 C102.287719,291.72773 102.063158,291.93409 101.810526,292.154207 C101.557895,292.374324 101.249123,292.608198 100.884211,292.85583 C100.82807,292.85583 100.701754,292.938374 100.505263,293.103461 C100.308772,293.268549 100.182456,293.351093 100.126316,293.351093 C100.070175,293.433637 100.035088,293.46803 100.021053,293.454273 C100.007018,293.440515 100,293.543695 100,293.763812 C100,293.9289 100.014035,294.025201 100.042105,294.052716 C100.070175,294.08023 100.182456,294.093987 100.378947,294.093987 Z M132.673684,280.22662 C132.252632,280.22662 131.922807,280.137198 131.684211,279.958353 C131.445614,279.779508 131.277193,279.524998 131.178947,279.194822 C131.080702,278.864647 131.024561,278.451928 131.010526,277.956664 C130.996491,277.461401 130.989474,276.897352 130.989474,276.264516 C130.989474,275.659194 130.975439,275.163931 130.947368,274.778726 C130.919298,274.393522 130.996491,274.090861 131.178947,273.870744 C131.361404,273.650627 131.698246,273.492418 132.189474,273.396117 C132.680702,273.299816 133.459649,273.251665 134.526316,273.251665 C134.807018,273.251665 135.017544,273.32733 135.157895,273.478661 C135.298246,273.629991 135.389474,273.815715 135.431579,274.035832 C135.473684,274.255948 135.487719,274.496701 135.473684,274.75809 C135.459649,275.019479 135.452632,275.260232 135.452632,275.480349 C135.452632,276.168214 135.410526,276.807929 135.326316,277.399493 C135.242105,277.991058 135.2,278.685802 135.2,279.483726 C135.14386,279.621299 135.003509,279.738236 134.778947,279.834537 C134.554386,279.930838 134.308772,280.006503 134.042105,280.061533 C133.775439,280.116562 133.508772,280.157834 133.242105,280.185348 C132.975439,280.212863 132.785965,280.22662 132.673684,280.22662 Z M127.705263,280.309164 L124.042105,280.309164 C123.901754,280.309164 123.803509,280.22662 123.747368,280.061533 C123.691228,279.896445 123.663158,279.786387 123.663158,279.731357 L123.663158,279.731357 L123.663158,274.613638 L124.042105,274.242191 C124.182456,274.242191 124.442105,274.221555 124.821053,274.180283 C125.2,274.139011 125.459649,274.118375 125.6,274.118375 C125.740351,274.118375 125.859649,274.063346 125.957895,273.953288 C126.05614,273.843229 126.189474,273.815715 126.357895,273.870744 C126.722807,273.870744 127.129825,273.898258 127.578947,273.953288 C128.02807,274.008317 128.322807,274.104618 128.463158,274.242191 C128.575439,275.177688 128.631579,276.071913 128.631579,276.924866 L128.631579,276.924866 L128.631579,279.483726 C128.547368,279.731357 128.45614,279.930838 128.357895,280.082169 C128.259649,280.233499 128.042105,280.309164 127.705263,280.309164 L127.705263,280.309164 Z" id="神"></path>
                </g>
            </g>
        </g>
    </g>
</svg>