<?xml version="1.0" encoding="UTF-8"?>
<svg width="32px" height="40px" viewBox="0 0 32 40" version="1.1" xmlns="http://www.w3.org/2000/svg" xmlns:xlink="http://www.w3.org/1999/xlink">
    <!-- Generator: Sketch 60 (88103) - https://sketch.com -->
    <title>鸟</title>
    <desc>Created with Sketch.</desc>
    <g id="页面-1" stroke="none" stroke-width="1" fill="none" fill-rule="evenodd">
        <g id="home" transform="translate(-724.000000, -854.000000)" fill="#000000" fill-rule="nonzero">
            <g id="编组-6" transform="translate(57.000000, 583.000000)">
                <g id="nav-bird" transform="translate(563.000000, 15.000000)">
                    <path d="M125.651948,296 C126.150649,296 126.587013,295.938398 126.961039,295.815195 C127.335065,295.691992 127.674459,295.520876 127.979221,295.301848 C128.283983,295.08282 128.574892,294.822724 128.851948,294.521561 C129.129004,294.220397 129.433766,293.891855 129.766234,293.535934 C129.821645,293.453799 129.911688,293.282683 130.036364,293.022587 C130.161039,292.762491 130.299567,292.481862 130.451948,292.180698 C130.604329,291.879535 130.742857,291.598905 130.867532,291.338809 C130.992208,291.078713 131.082251,290.907598 131.137662,290.825462 C131.442424,290.277892 131.705628,289.702943 131.927273,289.100616 C132.148918,288.498289 132.384416,287.882272 132.633766,287.252567 C132.633766,287.19781 132.675325,287.09514 132.758442,286.944559 C132.841558,286.793977 132.883117,286.691307 132.883117,286.63655 C133.021645,286.198494 133.125541,285.801506 133.194805,285.445585 C133.264069,285.089665 133.367965,284.706366 133.506494,284.295688 C133.451082,284.213552 133.499567,284.090349 133.651948,283.926078 C133.804329,283.761807 133.880519,283.556468 133.880519,283.310062 C133.963636,283.063655 134.025974,282.844627 134.067532,282.652977 L134.067532,282.652977 L134.192208,282.078029 C134.233766,281.886379 134.30303,281.69473 134.4,281.50308 C134.49697,281.311431 134.656277,281.092402 134.877922,280.845996 C135.071861,280.626968 135.307359,280.394251 135.584416,280.147844 C135.861472,279.901437 136,279.586585 136,279.203285 C136,279.011636 135.882251,278.765229 135.646753,278.464066 C135.411255,278.162902 135.127273,277.868583 134.794805,277.581109 C134.462338,277.293634 134.12987,277.040383 133.797403,276.821355 C133.464935,276.602327 133.201732,276.492813 133.007792,276.492813 C132.619913,276.492813 132.176623,276.698152 131.677922,277.10883 C131.179221,277.519507 130.708225,277.943874 130.264935,278.38193 C130.070996,278.409309 129.641558,278.47091 128.976623,278.566735 C128.311688,278.66256 127.535931,278.710472 126.649351,278.710472 C126.4,278.710472 126.136797,278.731006 125.85974,278.772074 C125.582684,278.813142 125.319481,278.854209 125.07013,278.895277 C124.820779,278.936345 124.599134,278.970568 124.405195,278.997947 C124.211255,279.025325 124.072727,279.011636 123.98961,278.956879 C123.851082,278.956879 123.483983,278.963723 122.888312,278.977413 C122.292641,278.991102 121.648485,279.011636 120.955844,279.039014 C120.263203,279.066393 119.619048,279.086927 119.023377,279.100616 C118.560077,279.111263 118.235049,279.11777 118.048292,279.120136 L117.922078,279.12115 C117.617316,279.148528 117.381818,279.127995 117.215584,279.059548 C117.049351,278.991102 116.869264,278.956879 116.675325,278.956879 C116.370563,278.956879 116.114286,278.991102 115.906494,279.059548 C115.698701,279.127995 115.456277,279.148528 115.179221,279.12115 C115.068398,279.066393 114.922944,279.03217 114.742857,279.01848 C114.562771,279.004791 114.38961,278.984257 114.223377,278.956879 C114.029437,278.9295 113.821645,278.902122 113.6,278.874743 L113.6,278.874743 L113.350649,278.628337 C113.322944,278.57358 113.302165,278.38193 113.288312,278.053388 C113.274459,277.724846 113.267532,277.533196 113.267532,277.478439 C113.267532,277.09514 113.399134,276.814511 113.662338,276.63655 C113.925541,276.45859 114.251082,276.335387 114.638961,276.26694 C115.02684,276.198494 115.435498,276.171116 115.864935,276.184805 C116.294372,276.198494 116.675325,276.19165 117.007792,276.164271 C117.090909,276.164271 117.264069,276.136893 117.527273,276.082136 C117.790476,276.027379 117.949784,276 118.005195,276 L118.005195,276 L120.914286,276 C121.052814,275.917864 121.15671,275.869952 121.225974,275.856263 C121.295238,275.842574 121.385281,275.835729 121.496104,275.835729 L121.496104,275.835729 L122.21039,275.835087 C122.343723,275.832093 122.604329,275.818617 122.992208,275.794661 C123.435498,275.767283 123.906494,275.739904 124.405195,275.712526 C124.903896,275.685147 125.367965,275.657769 125.797403,275.63039 C126.22684,275.603012 126.510823,275.589322 126.649351,275.589322 C127.175758,275.589322 127.688312,275.596167 128.187013,275.609856 C128.685714,275.623546 129.135931,275.609856 129.537662,275.568789 C129.939394,275.527721 130.264935,275.431896 130.514286,275.281314 C130.763636,275.130732 130.888312,274.90486 130.888312,274.603696 C130.888312,274.412047 130.812121,274.206708 130.65974,273.98768 C130.507359,273.768652 130.320346,273.570157 130.098701,273.392197 C129.877056,273.214237 129.648485,273.0705 129.412987,272.960986 C129.177489,272.851472 128.962771,272.796715 128.768831,272.796715 C128.408658,272.796715 128.069264,272.872005 127.750649,273.022587 C127.432035,273.173169 127.141126,273.344285 126.877922,273.535934 C126.614719,273.727584 126.358442,273.8987 126.109091,274.049281 C125.85974,274.199863 125.624242,274.275154 125.402597,274.275154 C125.319481,274.275154 125.139394,274.288843 124.862338,274.316222 C124.585281,274.3436 124.287446,274.370979 123.968831,274.398357 C123.650216,274.425736 123.352381,274.453114 123.075325,274.480493 C122.798268,274.507871 122.604329,274.521561 122.493506,274.521561 C122.161039,274.548939 121.800866,274.521561 121.412987,274.439425 C121.025108,274.35729 120.692641,274.329911 120.415584,274.35729 C120.193939,274.35729 119.847619,274.370979 119.376623,274.398357 C118.905628,274.425736 118.358442,274.453114 117.735065,274.480493 C117.111688,274.507871 116.439827,274.53525 115.719481,274.562628 C114.999134,274.590007 114.264935,274.603696 113.516883,274.603696 C113.378355,274.466804 113.302165,274.336756 113.288312,274.213552 C113.274459,274.090349 113.267532,273.946612 113.267532,273.782341 C113.267532,273.61807 113.302165,273.42642 113.371429,273.207392 C113.440693,272.988364 113.6,272.87885 113.849351,272.87885 C114.154113,272.851472 114.493506,272.830938 114.867532,272.817248 C115.241558,272.803559 115.594805,272.796715 115.927273,272.796715 L115.927273,272.796715 L117.257143,272.796715 L117.755844,272.87885 C118.060606,272.87885 118.490043,272.837782 119.044156,272.755647 C119.598268,272.673511 120.083117,272.605065 120.498701,272.550308 L120.498701,272.550308 L123.906494,272.303901 C123.98961,272.303901 124.218182,272.283368 124.592208,272.2423 C124.966234,272.201232 125.402597,272.15332 125.901299,272.098563 C126.4,272.043806 126.919481,271.995893 127.45974,271.954825 C128,271.913758 128.477922,271.893224 128.893506,271.893224 C129.170563,271.838467 129.392208,271.742642 129.558442,271.605749 C129.724675,271.468857 129.793939,271.208761 129.766234,270.825462 C129.766234,270.770705 129.752381,270.592745 129.724675,270.291581 C129.69697,269.990418 129.669264,269.675565 129.641558,269.347023 C129.613853,269.01848 129.586147,268.703628 129.558442,268.402464 C129.530736,268.1013 129.516883,267.92334 129.516883,267.868583 C129.572294,267.485284 129.606926,267.054073 129.620779,266.574949 C129.634632,266.095825 129.724675,265.650924 129.890909,265.240246 C129.974026,264.939083 130.119481,264.651608 130.327273,264.377823 C130.535065,264.104038 130.638961,263.816564 130.638961,263.5154 C130.638961,263.241615 130.555844,263.008898 130.38961,262.817248 C130.223377,262.625599 130.022511,262.461328 129.787013,262.324435 C129.551515,262.187543 129.309091,262.064339 129.05974,261.954825 C128.81039,261.845311 128.588745,261.749487 128.394805,261.667351 C128.3671,261.639973 128.263203,261.571526 128.083117,261.462012 C127.90303,261.352498 127.716017,261.23614 127.522078,261.112936 L127.236364,260.933265 L127.236364,260.933265 L126.961039,260.76386 C126.780952,260.654346 126.677056,260.5859 126.649351,260.558522 C126.510823,260.503765 126.427706,260.469541 126.4,260.455852 C126.372294,260.442163 126.330736,260.435318 126.275325,260.435318 C125.970563,260.435318 125.741991,260.551677 125.58961,260.784394 C125.437229,261.017112 125.291775,261.229295 125.153247,261.420945 C125.042424,261.585216 124.89697,261.742642 124.716883,261.893224 C124.536797,262.043806 124.342857,262.180698 124.135065,262.303901 C123.927273,262.427105 123.733333,262.529774 123.553247,262.61191 C123.37316,262.694045 123.241558,262.748802 123.158442,262.776181 C122.65974,262.776181 122.223377,262.796715 121.849351,262.837782 C121.475325,262.87885 121.108225,262.899384 120.748052,262.899384 C120.637229,262.899384 120.505628,262.892539 120.353247,262.87885 C120.200866,262.865161 120.062338,262.824093 119.937662,262.755647 C119.812987,262.687201 119.702165,262.59822 119.605195,262.488706 C119.508225,262.379192 119.473593,262.228611 119.501299,262.036961 C119.972294,261.407255 120.484848,260.852841 121.038961,260.373717 C121.593074,259.894593 122.077922,259.340178 122.493506,258.710472 C122.604329,258.628337 122.645887,258.539357 122.618182,258.443532 C122.590476,258.347707 122.604329,258.272416 122.65974,258.217659 C122.65974,258.108145 122.58355,258.005476 122.431169,257.909651 C122.278788,257.813826 122.105628,257.724846 121.911688,257.64271 C121.717749,257.560575 121.52381,257.471595 121.32987,257.37577 C121.135931,257.279945 120.997403,257.149897 120.914286,256.985626 C120.581818,256.793977 120.263203,256.581793 119.958442,256.349076 C119.65368,256.116359 119.307359,256 118.919481,256 C118.836364,256 118.690909,256.041068 118.483117,256.123203 C118.275325,256.205339 118.05368,256.287474 117.818182,256.36961 C117.582684,256.451745 117.361039,256.533881 117.153247,256.616016 C116.945455,256.698152 116.786147,256.73922 116.675325,256.73922 C116.536797,256.793977 116.377489,256.862423 116.197403,256.944559 C116.017316,257.026694 115.927273,257.163587 115.927273,257.355236 C115.927273,257.601643 115.968831,257.827515 116.051948,258.032854 C116.135065,258.238193 116.176623,258.464066 116.176623,258.710472 C116.176623,259.093771 116.100433,259.436003 115.948052,259.737166 C115.795671,260.03833 115.615584,260.31896 115.407792,260.579055 C115.2,260.839151 114.978355,261.099247 114.742857,261.359343 C114.507359,261.619439 114.292641,261.886379 114.098701,262.160164 C113.960173,262.351814 113.745455,262.502396 113.454545,262.61191 C113.163636,262.721424 112.935065,262.776181 112.768831,262.776181 C112.187013,262.776181 111.709091,262.707734 111.335065,262.570842 C110.961039,262.433949 110.628571,262.276523 110.337662,262.098563 C110.046753,261.920602 109.762771,261.763176 109.485714,261.626283 C109.208658,261.489391 108.890043,261.420945 108.52987,261.420945 C108.391342,261.420945 108.238961,261.468857 108.072727,261.564682 C107.906494,261.660507 107.761039,261.776865 107.636364,261.913758 C107.511688,262.05065 107.407792,262.201232 107.324675,262.365503 C107.241558,262.529774 107.227706,262.666667 107.283117,262.776181 C107.754113,263.241615 108.051948,263.61807 108.176623,263.905544 C108.301299,264.193018 108.419048,264.555784 108.52987,264.99384 C108.668398,265.568789 108.806926,266.109514 108.945455,266.616016 C109.083983,267.122519 109.194805,267.649555 109.277922,268.197125 C109.333333,268.66256 109.354113,269.100616 109.34026,269.511294 C109.326407,269.921971 109.388745,270.360027 109.527273,270.825462 L109.527273,270.825462 L109.527273,277.724846 C109.527273,277.943874 109.458009,278.190281 109.319481,278.464066 C109.180952,278.737851 109.000866,278.874743 108.779221,278.874743 L108.779221,278.874743 L106.285714,278.874743 C106.036364,278.792608 105.752381,278.703628 105.433766,278.607803 C105.115152,278.511978 104.803463,278.464066 104.498701,278.464066 C104.470996,278.464066 104.387879,278.532512 104.249351,278.669405 C104.193939,278.75154 104.152381,278.819986 104.124675,278.874743 L104.124675,278.874743 L104.124675,279.12115 C104.124675,279.175907 104.207792,279.333333 104.374026,279.593429 C104.54026,279.853525 104.623377,280.024641 104.623377,280.106776 C104.678788,280.243669 104.727273,280.414784 104.768831,280.620123 C104.81039,280.825462 104.872727,281.023956 104.955844,281.215606 C105.038961,281.407255 105.149784,281.571526 105.288312,281.708419 C105.42684,281.845311 105.620779,281.913758 105.87013,281.913758 C106.31342,281.913758 106.777489,281.859001 107.262338,281.749487 C107.747186,281.639973 108.280519,281.585216 108.862338,281.585216 C108.945455,281.50308 109.014719,281.455168 109.07013,281.441478 C109.125541,281.427789 109.180952,281.420945 109.236364,281.420945 L109.236364,281.420945 L109.527273,281.420945 C109.748918,281.420945 110.136797,281.379877 110.690909,281.297741 C111.245022,281.215606 111.716017,281.174538 112.103896,281.174538 L112.103896,281.174538 L112.519481,281.338809 L112.602597,281.338809 C112.630303,281.338809 112.727273,281.318275 112.893506,281.277207 C113.05974,281.23614 113.225974,281.188227 113.392208,281.13347 C113.558442,281.078713 113.710823,281.030801 113.849351,280.989733 C113.987879,280.948665 114.070996,280.928131 114.098701,280.928131 C114.154113,280.928131 114.327273,280.95551 114.618182,281.010267 C114.909091,281.065024 115.12381,281.092402 115.262338,281.092402 C115.594805,281.092402 115.892641,281.023956 116.155844,280.887064 C116.419048,280.750171 116.70303,280.681725 117.007792,280.681725 C117.506494,280.681725 117.977489,280.668036 118.420779,280.640657 C118.864069,280.613279 119.321212,280.579055 119.792208,280.537988 C120.263203,280.49692 120.768831,280.455852 121.309091,280.414784 C121.849351,280.373717 122.493506,280.353183 123.241558,280.353183 L123.241558,280.353183 L123.74026,280.435318 C124.238961,280.325804 124.668398,280.257358 125.028571,280.229979 C125.388745,280.202601 125.721212,280.182067 126.025974,280.168378 C126.330736,280.154689 126.642424,280.134155 126.961039,280.106776 C127.279654,280.079398 127.6329,280.024641 128.020779,279.942505 C128.187013,279.942505 128.429437,279.94935 128.748052,279.963039 C129.066667,279.976728 129.371429,280.024641 129.662338,280.106776 C129.953247,280.188912 130.209524,280.30527 130.431169,280.455852 C130.652814,280.606434 130.763636,280.818617 130.763636,281.092402 C130.763636,281.475702 130.673593,281.900068 130.493506,282.365503 C130.31342,282.830938 130.154113,283.255305 130.015584,283.638604 C129.821645,284.186174 129.620779,284.829569 129.412987,285.568789 C129.205195,286.308008 128.948918,287.026694 128.644156,287.724846 C128.339394,288.422998 127.958442,289.011636 127.501299,289.49076 C127.044156,289.969884 126.469264,290.209446 125.776623,290.209446 C125.111688,290.209446 124.474459,290.168378 123.864935,290.086242 C123.255411,290.004107 122.632035,289.963039 121.994805,289.963039 C121.911688,289.963039 121.821645,290.031485 121.724675,290.168378 C121.627706,290.30527 121.606926,290.401095 121.662338,290.455852 C121.662338,290.592745 121.738528,290.715948 121.890909,290.825462 C122.04329,290.934976 122.223377,291.058179 122.431169,291.195072 C122.638961,291.331964 122.85368,291.489391 123.075325,291.667351 C123.29697,291.845311 123.490909,292.057495 123.657143,292.303901 C123.961905,292.659822 124.169697,293.063655 124.280519,293.5154 C124.391342,293.967146 124.446753,294.425736 124.446753,294.89117 C124.446753,295.028063 124.439827,295.137577 124.425974,295.219713 C124.412121,295.301848 124.405195,295.397673 124.405195,295.507187 C124.543723,295.753593 124.72381,295.897331 124.945455,295.938398 C125.1671,295.979466 125.402597,296 125.651948,296 Z M114.119481,267.088296 C113.77316,267.170431 113.6,267.18412 113.6,267.129363 C113.295238,267.129363 113.122078,267.00616 113.080519,266.759754 C113.038961,266.513347 113.018182,266.308008 113.018182,266.143737 C113.018182,265.815195 113.045887,265.514031 113.101299,265.240246 C113.15671,264.966461 113.378355,264.80219 113.766234,264.747433 C114.708225,264.747433 115.47013,264.740589 116.051948,264.726899 C116.633766,264.71321 117.118615,264.692676 117.506494,264.665298 C117.894372,264.637919 118.247619,264.603696 118.566234,264.562628 C118.884848,264.521561 119.258874,264.487337 119.688312,264.459959 C120.117749,264.43258 120.658009,264.412047 121.309091,264.398357 C121.960173,264.384668 122.825974,264.377823 123.906494,264.377823 C123.961905,264.43258 124.031169,264.514716 124.114286,264.62423 C124.197403,264.733744 124.238961,264.81588 124.238961,264.870637 C124.238961,265.007529 124.232035,265.164956 124.218182,265.342916 C124.204329,265.520876 124.197403,265.691992 124.197403,265.856263 C124.169697,266.047912 124.155844,266.253251 124.155844,266.472279 L124.155844,266.472279 L123.906494,266.718686 C123.54632,266.718686 123.089177,266.732375 122.535065,266.759754 C121.980952,266.787132 121.371429,266.814511 120.706494,266.841889 C120.041558,266.869268 119.341991,266.896646 118.607792,266.924025 C117.873593,266.951403 117.174026,266.965092 116.509091,266.965092 L116.509091,266.965092 L116.176623,267.129363 C116.093506,267.129363 115.899567,267.101985 115.594805,267.047228 C115.290043,266.992471 115.096104,266.965092 115.012987,266.965092 C114.763636,266.965092 114.465801,267.00616 114.119481,267.088296 Z M113.686085,271.07145 L113.350649,271.071869 C113.101299,270.934976 112.955844,270.770705 112.914286,270.579055 C112.872727,270.387406 112.851948,270.140999 112.851948,269.839836 C112.824242,269.620808 112.872727,269.449692 112.997403,269.326489 C113.122078,269.203285 113.288312,269.114305 113.496104,269.059548 C113.703896,269.004791 113.918615,268.970568 114.14026,268.956879 C114.361905,268.94319 114.555844,268.936345 114.722078,268.936345 L114.722078,268.936345 L115.511688,268.936345 C116.425974,268.936345 117.284848,268.902122 118.088312,268.833676 C118.891775,268.765229 119.750649,268.689938 120.664935,268.607803 C121.080519,268.607803 121.496104,268.539357 121.911688,268.402464 C122.327273,268.265572 122.604329,268.197125 122.742857,268.197125 C122.909091,268.197125 123.096104,268.190281 123.303896,268.176591 C123.511688,268.162902 123.698701,268.183436 123.864935,268.238193 C124.031169,268.29295 124.169697,268.409309 124.280519,268.587269 C124.391342,268.765229 124.4329,269.045859 124.405195,269.429158 C124.405195,269.538672 124.377489,269.730322 124.322078,270.004107 L124.322078,270.004107 L124.238961,270.414784 L123.74026,270.661191 C123.712554,270.661191 123.601732,270.67488 123.407792,270.702259 C123.213853,270.729637 122.992208,270.757016 122.742857,270.784394 L122.742857,270.784394 L121.994805,270.86653 C121.745455,270.893908 121.551515,270.907598 121.412987,270.907598 L121.412987,270.907598 L118.420779,270.907598 C118.088312,270.907598 117.790476,270.914442 117.527273,270.928131 C117.264069,270.941821 116.959307,270.962355 116.612987,270.989733 C116.266667,271.017112 115.837229,271.037645 115.324675,271.051335 C114.812121,271.065024 114.154113,271.071869 113.350649,271.071869 L113.686085,271.07145 Z M119.002597,290.086242 C119.307359,290.086242 119.625974,290.017796 119.958442,289.880903 C120.290909,289.744011 120.588745,289.566051 120.851948,289.347023 C121.115152,289.127995 121.32987,288.888433 121.496104,288.628337 C121.662338,288.368241 121.745455,288.11499 121.745455,287.868583 C121.745455,287.594798 121.690043,287.348392 121.579221,287.129363 C121.468398,286.910335 121.343723,286.691307 121.205195,286.472279 C121.066667,286.253251 120.941991,286.027379 120.831169,285.794661 C120.720346,285.561944 120.664935,285.308693 120.664935,285.034908 C120.664935,284.925394 120.602597,284.747433 120.477922,284.501027 C120.353247,284.25462 120.207792,284.008214 120.041558,283.761807 C119.875325,283.5154 119.716017,283.296372 119.563636,283.104723 C119.411255,282.913073 119.307359,282.817248 119.251948,282.817248 L119.251948,282.817248 L119.168831,282.817248 C118.947186,282.817248 118.7671,282.960986 118.628571,283.24846 C118.490043,283.535934 118.379221,283.878166 118.296104,284.275154 C118.212987,284.672142 118.12987,285.075975 118.046753,285.486653 C117.963636,285.897331 117.866667,286.239562 117.755844,286.513347 C117.617316,286.759754 117.458009,286.985626 117.277922,287.190965 C117.097835,287.396304 117.007792,287.622177 117.007792,287.868583 C117.007792,288.251882 117.208658,288.669405 117.61039,289.12115 C118.012121,289.572895 118.47619,289.894593 119.002597,290.086242 Z M124.488312,289.100616 C125.014719,289.100616 125.485714,288.956879 125.901299,288.669405 C126.316883,288.38193 126.524675,287.964408 126.524675,287.416838 C126.524675,287.088296 126.517749,286.773443 126.503896,286.472279 C126.490043,286.171116 126.330736,285.637235 126.025974,284.870637 C125.998268,284.761123 125.95671,284.603696 125.901299,284.398357 C125.845887,284.193018 125.78355,283.98768 125.714286,283.782341 C125.645022,283.577002 125.554978,283.392197 125.444156,283.227926 C125.333333,283.063655 125.194805,282.954141 125.028571,282.899384 C124.668398,282.98152 124.481385,283.173169 124.467532,283.474333 C124.45368,283.775496 124.4329,283.994524 124.405195,284.131417 C124.405195,284.405202 124.363636,284.644764 124.280519,284.850103 C124.197403,285.055441 124.114286,285.253936 124.031169,285.445585 C123.948052,285.637235 123.871861,285.80835 123.802597,285.958932 C123.733333,286.109514 123.712554,286.253251 123.74026,286.390144 C123.684848,286.691307 123.587879,286.958248 123.449351,287.190965 C123.310823,287.423682 123.241558,287.690623 123.241558,287.991786 C123.241558,288.429843 123.37316,288.724162 123.636364,288.874743 C123.899567,289.025325 124.18355,289.100616 124.488312,289.100616 Z M113.018182,290.825462 C113.406061,290.825462 113.745455,290.736482 114.036364,290.558522 C114.327273,290.380561 114.576623,290.161533 114.784416,289.901437 C114.992208,289.641342 115.151515,289.367556 115.262338,289.080082 C115.37316,288.792608 115.428571,288.553046 115.428571,288.361396 C115.428571,287.978097 115.338528,287.629021 115.158442,287.314168 C114.978355,286.999316 114.791342,286.609172 114.597403,286.143737 C114.514286,285.897331 114.424242,285.616701 114.327273,285.301848 C114.230303,284.986995 114.126407,284.678987 114.015584,284.377823 C113.904762,284.07666 113.77316,283.823409 113.620779,283.61807 C113.468398,283.412731 113.295238,283.310062 113.101299,283.310062 C112.962771,283.310062 112.831169,283.419576 112.706494,283.638604 C112.581818,283.857632 112.464069,284.110883 112.353247,284.398357 C112.242424,284.685832 112.159307,284.973306 112.103896,285.26078 C112.048485,285.548255 112.020779,285.746749 112.020779,285.856263 C112.020779,286.485969 111.909957,287.033539 111.688312,287.498973 C111.466667,287.964408 111.272727,288.416153 111.106494,288.854209 C111.106494,289.347023 111.300433,289.798768 111.688312,290.209446 C112.07619,290.620123 112.519481,290.825462 113.018182,290.825462 Z M105.496104,292.201232 C105.717749,292.324435 105.897835,292.358658 106.036364,292.303901 C106.285714,292.303901 106.590476,292.13963 106.950649,291.811088 C107.310823,291.482546 107.698701,291.195072 108.114286,290.948665 C108.585281,290.565366 108.89697,290.134155 109.049351,289.655031 C109.201732,289.175907 109.277922,288.66256 109.277922,288.11499 C109.277922,287.868583 109.236364,287.519507 109.153247,287.067762 C109.07013,286.616016 108.952381,286.164271 108.8,285.712526 C108.647619,285.26078 108.467532,284.870637 108.25974,284.542094 C108.051948,284.213552 107.837229,284.049281 107.615584,284.049281 C107.477056,284.049281 107.345455,284.145106 107.220779,284.336756 C107.096104,284.528405 106.978355,284.754278 106.867532,285.014374 C106.75671,285.27447 106.65974,285.534565 106.576623,285.794661 C106.493506,286.054757 106.424242,286.253251 106.368831,286.390144 C106.341126,286.472279 106.285714,286.609172 106.202597,286.800821 C106.119481,286.992471 106.036364,287.177276 105.953247,287.355236 C105.87013,287.533196 105.787013,287.697467 105.703896,287.848049 C105.620779,287.998631 105.565368,288.087611 105.537662,288.11499 C105.42684,288.306639 105.288312,288.491444 105.122078,288.669405 C104.955844,288.847365 104.78961,289.03217 104.623377,289.223819 C104.457143,289.415469 104.311688,289.613963 104.187013,289.819302 C104.062338,290.024641 104,290.236824 104,290.455852 C104,290.647502 104.083117,290.859685 104.249351,291.092402 C104.415584,291.32512 104.609524,291.537303 104.831169,291.728953 C105.052814,291.920602 105.274459,292.078029 105.496104,292.201232 Z" id="鸟"></path>
                </g>
            </g>
        </g>
    </g>
</svg>