<?xml version="1.0" encoding="UTF-8"?>
<svg width="36px" height="40px" viewBox="0 0 36 40" version="1.1" xmlns="http://www.w3.org/2000/svg" xmlns:xlink="http://www.w3.org/1999/xlink">
    <!-- Generator: Sketch 60 (88103) - https://sketch.com -->
    <title>鱼</title>
    <desc>Created with Sketch.</desc>
    <g id="页面-1" stroke="none" stroke-width="1" fill="none" fill-rule="evenodd">
        <g id="home" transform="translate(-422.000000, -854.000000)" fill="#000000" fill-rule="nonzero">
            <g id="编组-6" transform="translate(57.000000, 583.000000)">
                <g id="nav-fish" transform="translate(263.000000, 15.000000)">
                    <path d="M134.764172,295.171429 L134.862825,295.161905 C135.033824,295.136508 135.132477,295.136508 135.158785,295.161905 C135.185092,295.161905 135.342938,295.111111 135.632321,295.009524 C135.921704,294.907937 136.243971,294.780952 136.599123,294.628571 C136.954275,294.47619 137.276542,294.304762 137.565925,294.114286 C137.855308,293.92381 138,293.739683 138,293.561905 C138,292.749206 137.750078,291.961905 137.250235,291.2 C136.750391,290.438095 136.158472,289.828571 135.474475,289.371429 C135.31663,289.244444 135.053555,289.098413 134.685249,288.933333 C134.316943,288.768254 134.067022,288.609524 133.935484,288.457143 C133.514563,288.050794 133.251488,287.746032 133.146257,287.542857 C133.041027,287.339683 132.988412,287.161905 132.988412,287.009524 C133.041027,286.88254 133.198873,286.679365 133.461948,286.4 C133.725023,286.120635 133.882869,285.91746 133.935484,285.790476 C134.119637,285.536508 134.251174,285.269841 134.330097,284.990476 C134.40902,284.711111 134.455058,284.431746 134.468212,284.152381 C134.481365,283.873016 134.474789,283.587302 134.448481,283.295238 C134.422174,283.003175 134.422174,282.71746 134.448481,282.438095 L134.448481,282.438095 L134.290636,282.209524 L134.290636,279.695238 C134.185406,279.568254 134.13279,279.365079 134.13279,279.085714 C134.13279,278.984127 134.139367,278.888889 134.152521,278.8 C134.165675,278.711111 134.172252,278.628571 134.172252,278.552381 C134.172252,277.485714 134.13279,276.546032 134.053868,275.733333 C133.974945,274.920635 133.935484,274.184127 133.935484,273.52381 C134.119637,273.168254 134.369558,272.850794 134.685249,272.571429 C135.00094,272.292063 135.158785,271.911111 135.158785,271.428571 C135.158785,271.250794 135.086439,271.098413 134.941748,270.971429 C134.797056,270.844444 134.626057,270.736508 134.42875,270.647619 C134.231444,270.55873 134.02756,270.47619 133.8171,270.4 C133.60664,270.32381 133.448794,270.260317 133.343564,270.209524 C133.054181,270.006349 132.777952,269.815873 132.514876,269.638095 C132.251801,269.460317 131.93611,269.371429 131.567805,269.371429 C131.304729,269.371429 131.061384,269.44127 130.83777,269.580952 C130.614156,269.720635 130.390542,269.885714 130.166928,270.07619 C129.943313,270.266667 129.726276,270.450794 129.515816,270.628571 C129.305355,270.806349 129.081741,270.920635 128.844973,270.971429 C128.476668,271.073016 128.128093,271.142857 127.799248,271.180952 C127.470404,271.219048 127.14156,271.238095 126.812715,271.238095 C126.483871,271.238095 126.128719,271.231746 125.74726,271.219048 C125.3658,271.206349 124.938303,271.2 124.464767,271.2 C124.359536,271.174603 124.227999,271.168254 124.070153,271.180952 C123.912308,271.193651 123.767617,271.193651 123.636079,271.180952 C123.504541,271.168254 123.399311,271.130159 123.320388,271.066667 C123.241466,271.003175 123.228312,270.895238 123.280927,270.742857 C123.807078,270.15873 124.405575,269.625397 125.076417,269.142857 C125.74726,268.660317 126.411525,268.203175 127.069214,267.771429 C127.595365,267.415873 128.108362,267.060317 128.608205,266.704762 C129.108049,266.349206 129.621046,266.019048 130.147197,265.714286 C130.43658,265.561905 130.758847,265.403175 131.113999,265.238095 C131.469151,265.073016 131.804573,264.907937 132.120263,264.742857 C132.435954,264.577778 132.699029,264.387302 132.90949,264.171429 C133.11995,263.955556 133.22518,263.707937 133.22518,263.428571 C133.22518,263.149206 133.113373,262.914286 132.889759,262.72381 C132.666145,262.533333 132.409646,262.374603 132.120263,262.247619 C131.83088,262.120635 131.548074,262.012698 131.271845,261.92381 C130.995615,261.834921 130.818039,261.726984 130.739117,261.6 C130.502349,261.396825 130.33135,261.193651 130.22612,260.990476 C130.120889,260.787302 129.857814,260.685714 129.436893,260.685714 C129.14751,260.685714 128.891012,260.774603 128.667397,260.952381 C128.443783,261.130159 128.213592,261.333333 127.976824,261.561905 C127.740056,261.790476 127.483558,261.993651 127.207329,262.171429 C126.931099,262.349206 126.608832,262.438095 126.240526,262.438095 C126.082681,262.438095 125.918259,262.431746 125.74726,262.419048 C125.576261,262.406349 125.424992,262.4 125.293454,262.4 C124.530536,262.4 123.78077,262.438095 123.044159,262.514286 C122.307548,262.590476 121.386784,262.628571 120.281867,262.628571 C120.229251,262.577778 120.124021,262.552381 119.966176,262.552381 L119.966176,262.552381 L119.49264,262.552381 C119.334795,262.552381 119.190103,262.526984 119.058566,262.47619 C118.927028,262.425397 118.861259,262.32381 118.861259,262.171429 C118.861259,262.044444 118.940182,261.860317 119.098027,261.619048 C119.255872,261.377778 119.433448,261.12381 119.630755,260.857143 C119.828061,260.590476 120.012214,260.330159 120.183213,260.07619 C120.354212,259.822222 120.439712,259.606349 120.439712,259.428571 C120.439712,259.174603 120.288443,258.952381 119.985907,258.761905 C119.68337,258.571429 119.341372,258.387302 118.959912,258.209524 C118.578453,258.031746 118.210147,257.866667 117.854995,257.714286 C117.499843,257.561905 117.282806,257.409524 117.203883,257.257143 C117.151268,257.206349 117,257.111111 116.750078,256.971429 C116.500157,256.831746 116.335734,256.736508 116.256812,256.685714 C116.020044,256.507937 115.803007,256.349206 115.6057,256.209524 C115.408393,256.069841 115.151895,256 114.836204,256 C114.704666,256 114.599436,256.012698 114.520514,256.038095 C114.441591,256.063492 114.428437,256.165079 114.481052,256.342857 C114.559975,256.520635 114.625744,256.685714 114.678359,256.838095 C114.730974,256.990476 114.783589,257.168254 114.836204,257.371429 C114.836204,257.422222 114.915127,257.555556 115.072972,257.771429 C115.230817,257.987302 115.30974,258.120635 115.30974,258.171429 C115.362355,258.628571 115.336048,259.098413 115.230817,259.580952 C115.125587,260.063492 114.980896,260.533333 114.796743,260.990476 C114.61259,261.447619 114.415283,261.866667 114.204823,262.247619 C113.994363,262.628571 113.81021,262.946032 113.652365,263.2 C113.126214,264.012698 112.580332,264.793651 112.01472,265.542857 C111.449107,266.292063 110.771688,266.95873 109.982462,267.542857 C109.929847,267.619048 109.831193,267.720635 109.686502,267.847619 C109.54181,267.974603 109.443157,268.07619 109.390542,268.152381 C108.732853,268.838095 108.088318,269.485714 107.456937,270.095238 C106.825556,270.704762 106.115252,271.27619 105.326026,271.809524 C105.16818,271.809524 104.95772,271.91746 104.694645,272.133333 C104.431569,272.349206 104.148763,272.603175 103.846226,272.895238 C103.543689,273.187302 103.234576,273.473016 102.918885,273.752381 C102.603194,274.031746 102.300658,274.222222 102.011275,274.32381 C101.984967,274.552381 102.004698,274.685714 102.070467,274.72381 C102.136236,274.761905 102.27435,274.780952 102.484811,274.780952 C103.037269,274.780952 103.523959,274.628571 103.944879,274.32381 C104.3658,274.019048 104.799875,273.752381 105.247103,273.52381 C105.273411,273.498413 105.352333,273.453968 105.483871,273.390476 C105.615409,273.326984 105.766677,273.257143 105.937676,273.180952 C106.108675,273.104762 106.266521,273.034921 106.411212,272.971429 C106.555904,272.907937 106.641403,272.863492 106.667711,272.838095 C106.983401,272.634921 107.285938,272.431746 107.575321,272.228571 C107.812089,272.050794 108.048857,271.885714 108.285625,271.733333 C108.522393,271.580952 108.693392,271.453968 108.798622,271.352381 C108.982775,271.225397 109.166928,271.11746 109.35108,271.028571 C109.535233,270.939683 109.745694,270.895238 109.982462,270.895238 C110.192922,270.895238 110.32446,271.009524 110.377075,271.238095 C110.42969,271.466667 110.455997,271.720635 110.455997,272 C110.455997,272.48254 110.449421,272.863492 110.436267,273.142857 C110.423113,273.422222 110.390229,273.663492 110.337614,273.866667 C110.363921,273.866667 110.390229,273.955556 110.416536,274.133333 C110.442844,274.311111 110.455997,274.539683 110.455997,274.819048 L110.455997,274.819048 L110.456787,276.519619 C110.458891,276.564317 110.465205,276.657778 110.475728,276.8 C110.488882,276.977778 110.502036,277.161905 110.515189,277.352381 L110.53492,277.633333 L110.53492,277.633333 L110.554651,277.904762 C110.567805,278.08254 110.574381,278.184127 110.574381,278.209524 L110.574381,278.209524 L110.574381,283.809524 C110.626997,284.139683 110.712496,284.349206 110.83088,284.438095 C110.949264,284.526984 111.100532,284.698413 111.284685,284.952381 C111.416223,285.155556 111.52803,285.35873 111.620106,285.561905 C111.712183,285.765079 111.810836,285.949206 111.916066,286.114286 C112.021297,286.279365 112.146257,286.419048 112.290949,286.533333 C112.43564,286.647619 112.613216,286.704762 112.823677,286.704762 C113.297213,286.704762 113.612903,286.533333 113.770749,286.190476 C113.928594,285.847619 114.007516,285.35873 114.007516,284.72381 C114.007516,284.546032 114.257438,284.406349 114.757282,284.304762 C115.257125,284.203175 115.829314,284.133333 116.473849,284.095238 C117.118384,284.057143 117.736611,284.038095 118.328531,284.038095 L118.328531,284.038095 L119.73809,284.038857 C120.055885,284.040889 120.335797,284.046984 120.577826,284.057143 C120.880363,284.069841 121.150016,284.088889 121.386784,284.114286 C121.623552,284.139683 121.847166,284.15873 122.057626,284.171429 C122.268086,284.184127 122.518008,284.190476 122.807391,284.190476 C123.386157,284.190476 124.017538,284.196825 124.701535,284.209524 C125.385531,284.222222 126.030066,284.228571 126.635139,284.228571 C127.240213,284.228571 127.772941,284.234921 128.233323,284.247619 C128.693705,284.260317 129.015972,284.266667 129.200125,284.266667 C129.463201,284.31746 129.667084,284.457143 129.811776,284.685714 C129.956467,284.914286 130.068274,285.180952 130.147197,285.485714 C130.22612,285.790476 130.291889,286.095238 130.344504,286.4 C130.397119,286.704762 130.489195,286.95873 130.620733,287.161905 C130.752271,287.390476 130.936423,287.498413 131.173191,287.485714 C131.409959,287.473016 131.62042,287.542857 131.804573,287.695238 C132.146571,288.050794 132.389915,288.425397 132.534607,288.819048 C132.679298,289.212698 132.784529,289.644444 132.850298,290.114286 C132.916066,290.584127 132.981835,291.104762 133.047604,291.67619 C133.113373,292.247619 133.251488,292.87619 133.461948,293.561905 C133.488256,293.612698 133.547448,293.714286 133.639524,293.866667 C133.7316,294.019048 133.830254,294.171429 133.935484,294.32381 C134.040714,294.47619 134.139367,294.628571 134.231444,294.780952 C134.32352,294.933333 134.395866,295.034921 134.448481,295.085714 C134.553711,295.161905 134.691826,295.187302 134.862825,295.161905 L134.764172,295.171429 Z M114.836204,271.580952 C114.336361,271.580952 113.902286,271.377778 113.533981,270.971429 C113.270905,270.971429 112.994676,270.946032 112.705293,270.895238 C112.41591,270.844444 112.146257,270.768254 111.896336,270.666667 C111.646414,270.565079 111.442531,270.444444 111.284685,270.304762 C111.12684,270.165079 111.047917,270.006349 111.047917,269.828571 C111.047917,269.701587 111.153148,269.530159 111.363608,269.314286 C111.574068,269.098413 111.82399,268.869841 112.113373,268.628571 C112.402756,268.387302 112.678985,268.15873 112.942061,267.942857 C113.205136,267.726984 113.402443,267.568254 113.533981,267.466667 C114.060132,267.009524 114.559975,266.520635 115.033511,266 C115.507047,265.479365 116.046351,264.977778 116.651425,264.495238 C117.940495,264.368254 119.216411,264.273016 120.479173,264.209524 C121.741935,264.146032 123.096774,264.114286 124.543689,264.114286 C124.75415,264.190476 124.911995,264.247619 125.017225,264.285714 C125.122455,264.32381 125.17507,264.419048 125.17507,264.571429 C125.17507,264.8 125.076417,265.04127 124.879111,265.295238 C124.681804,265.549206 124.464767,265.803175 124.227999,266.057143 C123.991231,266.311111 123.76104,266.55873 123.537426,266.8 C123.313811,267.04127 123.175697,267.263492 123.123082,267.466667 C123.123082,267.51746 123.031005,267.625397 122.846852,267.790476 C122.6627,267.955556 122.570623,268.07619 122.570623,268.152381 C122.254933,268.431746 122.024742,268.749206 121.88005,269.104762 C121.735359,269.460317 121.439399,269.777778 120.99217,270.057143 C120.939555,270.260317 120.78171,270.47619 120.518635,270.704762 C120.255559,270.933333 119.992484,271.149206 119.729408,271.352381 L119.729408,271.352381 L115.941121,271.352381 C115.730661,271.479365 115.553085,271.549206 115.408393,271.561905 C115.263702,271.574603 115.072972,271.580952 114.836204,271.580952 Z M126.755891,276.723048 L126.201065,276.723048 C125.843282,276.721016 125.527592,276.714921 125.253993,276.704762 C124.911995,276.692063 124.517382,276.660317 124.070153,276.609524 C123.859693,276.584127 123.695271,276.444444 123.576887,276.190476 C123.458503,275.936508 123.366427,275.650794 123.300658,275.333333 C123.234889,275.015873 123.188851,274.698413 123.162543,274.380952 C123.136236,274.063492 123.123082,273.815873 123.123082,273.638095 C122.965236,273.307937 123.06389,273.060317 123.419042,272.895238 C123.774194,272.730159 124.195114,272.615873 124.681804,272.552381 C125.168494,272.488889 125.655183,272.463492 126.141873,272.47619 C126.628562,272.488889 126.937676,272.495238 127.069214,272.495238 C127.832133,272.495238 128.397745,272.514286 128.766051,272.552381 C129.134356,272.590476 129.318509,272.888889 129.318509,273.447619 L129.318509,273.447619 L129.318509,274.095238 C129.318509,274.222222 129.325086,274.336508 129.33824,274.438095 C129.351394,274.539683 129.384278,274.615873 129.436893,274.666667 L129.436893,274.666667 L129.436893,276.380952 C129.14751,276.584127 128.693705,276.692063 128.075478,276.704762 C127.45725,276.71746 126.924522,276.72381 126.477294,276.72381 L126.755891,276.723048 Z M118.387723,276.952381 L114.599436,276.952381 C114.415283,276.952381 114.231131,276.844444 114.046978,276.628571 C113.862825,276.412698 113.770749,276.215873 113.770749,276.038095 L113.770749,276.038095 L113.770749,273.638095 C113.770749,273.485714 113.875979,273.365079 114.086439,273.27619 C114.296899,273.187302 114.553398,273.11746 114.855935,273.066667 C115.158472,273.015873 115.480739,272.984127 115.822737,272.971429 C116.164735,272.95873 116.467272,272.952381 116.730348,272.952381 C116.940808,272.952381 117.276229,272.965079 117.736611,272.990476 C118.196993,273.015873 118.492953,273.11746 118.624491,273.295238 C118.756029,273.473016 118.828375,273.746032 118.841528,274.114286 C118.854682,274.48254 118.861259,274.780952 118.861259,275.009524 L118.861259,275.009524 L118.861259,275.561905 C118.861259,275.777778 118.854682,275.987302 118.841528,276.190476 C118.828375,276.393651 118.788913,276.571429 118.723144,276.72381 C118.657376,276.87619 118.545568,276.952381 118.387723,276.952381 L118.387723,276.952381 Z M125.76699,282.590476 C125.398685,282.590476 125.06984,282.584127 124.780457,282.571429 C124.491074,282.55873 124.254306,282.457143 124.070153,282.266667 C123.886001,282.07619 123.747886,281.746032 123.65581,281.27619 C123.563733,280.806349 123.517695,280.126984 123.517695,279.238095 C123.517695,278.984127 123.636079,278.8 123.872847,278.685714 C124.109615,278.571429 124.37269,278.495238 124.662073,278.457143 C124.951456,278.419048 125.227686,278.4 125.490761,278.4 C125.753837,278.4 125.924836,278.374603 126.003758,278.32381 C126.266834,278.32381 126.602255,278.31746 127.010022,278.304762 C127.417789,278.292063 127.818979,278.304762 128.213592,278.342857 C128.608205,278.380952 128.969934,278.450794 129.298779,278.552381 C129.627623,278.653968 129.831506,278.806349 129.910429,279.009524 C129.910429,279.136508 129.93016,279.403175 129.969621,279.809524 C130.009082,280.215873 130.028813,280.48254 130.028813,280.609524 L130.028813,280.609524 L130.028813,280.761905 C130.028813,281.574603 129.903852,282.057143 129.65393,282.209524 C129.404009,282.361905 129.015972,282.438095 128.489821,282.438095 C128.016286,282.438095 127.536173,282.463492 127.049483,282.514286 C126.562794,282.565079 126.135296,282.590476 125.76699,282.590476 Z M118.545568,282.666667 L114.836204,282.666667 C114.336361,282.666667 114.033824,282.469841 113.928594,282.07619 C113.823364,281.68254 113.770749,281.269841 113.770749,280.838095 L113.770749,280.838095 L113.770749,279.238095 C113.954901,278.907937 114.244284,278.685714 114.638898,278.571429 C115.033511,278.457143 115.441278,278.4 115.862199,278.4 C116.283119,278.4 116.664579,278.419048 117.006577,278.457143 C117.348575,278.495238 117.545882,278.488889 117.598497,278.438095 C118.177263,278.438095 118.591607,278.552381 118.841528,278.780952 C119.09145,279.009524 119.17695,279.593651 119.098027,280.533333 L119.098027,280.533333 L119.098027,281.238095 C119.098027,281.479365 119.078296,281.707937 119.038835,281.92381 C118.999374,282.139683 118.940182,282.31746 118.861259,282.457143 C118.782336,282.596825 118.677106,282.666667 118.545568,282.666667 L118.545568,282.666667 Z M125.530222,295.314286 C125.819605,295.314286 126.082681,295.212698 126.319449,295.009524 C126.556217,294.806349 126.806138,294.704762 127.069214,294.704762 C127.595365,294.501587 128.022863,294.228571 128.351707,293.885714 C128.680551,293.542857 128.844973,293.180952 128.844973,292.8 C128.844973,292.215873 128.680551,291.650794 128.351707,291.104762 C128.022863,290.55873 127.713749,290.006349 127.424366,289.447619 C127.16129,288.965079 126.904792,288.495238 126.65487,288.038095 C126.404948,287.580952 126.069527,287.136508 125.648606,286.704762 C125.411838,287.085714 125.234262,287.555556 125.115878,288.114286 C124.997495,288.673016 124.898841,289.168254 124.819919,289.6 C124.740996,290.107937 124.596304,290.692063 124.385844,291.352381 C124.175384,292.012698 124.070153,292.520635 124.070153,292.87619 C124.070153,293.053968 124.109615,293.27619 124.188537,293.542857 C124.26746,293.809524 124.37269,294.07619 124.504228,294.342857 C124.635766,294.609524 124.787034,294.838095 124.958033,295.028571 C125.129032,295.219048 125.319762,295.314286 125.530222,295.314286 Z M107.614782,295.390476 C107.904165,295.390476 108.259317,295.320635 108.680238,295.180952 C109.101159,295.04127 109.502349,294.87619 109.883808,294.685714 C110.265268,294.495238 110.600689,294.311111 110.890072,294.133333 C111.179455,293.955556 111.350454,293.84127 111.403069,293.790476 C111.61353,293.587302 111.745067,293.28254 111.797682,292.87619 C111.850298,292.469841 111.876605,292.139683 111.876605,291.885714 C111.876605,291.12381 111.745067,290.450794 111.481992,289.866667 C111.218916,289.28254 110.91638,288.533333 110.574381,287.619048 C110.521766,287.492063 110.488882,287.320635 110.475728,287.104762 C110.462574,286.888889 110.337614,286.780952 110.100846,286.780952 C109.969308,286.780952 109.877231,286.971429 109.824616,287.352381 C109.772001,287.733333 109.745694,288.050794 109.745694,288.304762 C109.614156,288.990476 109.357657,289.631746 108.976198,290.228571 C108.594738,290.825397 108.259317,291.453968 107.969934,292.114286 C107.601629,292.393651 107.312246,292.768254 107.101785,293.238095 C106.891325,293.707937 106.786095,294.171429 106.786095,294.628571 C106.786095,295.136508 107.062324,295.390476 107.614782,295.390476 Z M117.677419,296 C117.808957,296 117.914187,295.993651 117.99311,295.980952 C118.072033,295.968254 118.177263,295.92381 118.308801,295.847619 C118.335108,295.822222 118.420608,295.784127 118.565299,295.733333 C118.709991,295.68254 118.874413,295.619048 119.058566,295.542857 C119.242718,295.466667 119.407141,295.396825 119.551832,295.333333 C119.696524,295.269841 119.782023,295.212698 119.808331,295.161905 C120.176636,295.009524 120.426558,294.863492 120.558096,294.72381 C120.689634,294.584127 120.755402,294.32381 120.755402,293.942857 C120.755402,293.35873 120.643595,292.768254 120.419981,292.171429 C120.196367,291.574603 119.966176,291.022222 119.729408,290.514286 C119.49264,289.980952 119.295334,289.409524 119.137488,288.8 C118.979643,288.190476 118.650799,287.669841 118.150955,287.238095 C117.99311,287.238095 117.861572,287.365079 117.756342,287.619048 C117.651112,287.873016 117.578766,288.146032 117.539305,288.438095 C117.499843,288.730159 117.473536,288.996825 117.460382,289.238095 C117.447228,289.479365 117.440651,289.6 117.440651,289.6 C117.440651,289.650794 117.40119,289.739683 117.322267,289.866667 C117.243345,289.993651 117.203883,290.08254 117.203883,290.133333 C117.046038,290.71746 116.848732,291.320635 116.611964,291.942857 C116.375196,292.565079 116.256812,293.180952 116.256812,293.790476 C116.230504,293.866667 116.283119,294.019048 116.414657,294.247619 C116.440965,294.4 116.473849,294.577778 116.51331,294.780952 C116.552772,294.984127 116.618541,295.174603 116.710617,295.352381 C116.802693,295.530159 116.927654,295.68254 117.0855,295.809524 C117.243345,295.936508 117.440651,296 117.677419,296 Z" id="鱼"></path>
                </g>
            </g>
        </g>
    </g>
</svg>