<?xml version="1.0" encoding="UTF-8"?>
<svg width="40px" height="40px" viewBox="0 0 40 40" version="1.1" xmlns="http://www.w3.org/2000/svg" xmlns:xlink="http://www.w3.org/1999/xlink">
    <!-- Generator: Sketch 60 (88103) - https://sketch.com -->
    <title>兽</title>
    <desc>Created with Sketch.</desc>
    <g id="页面-1" stroke="none" stroke-width="1" fill="none" fill-rule="evenodd">
        <g id="home" transform="translate(-1004.000000, -854.000000)" fill="#000000" fill-rule="nonzero">
            <g id="编组-6" transform="translate(57.000000, 583.000000)">
                <g id="nav-beast" transform="translate(847.000000, 15.000000)">
                    <path d="M113.857351,265.715536 C114.058182,265.715536 114.208805,265.642597 114.309221,265.496718 C114.409637,265.350839 114.488534,265.190372 114.545915,265.015317 C114.603295,264.840263 114.667848,264.665208 114.739573,264.490153 C114.811299,264.315098 114.947577,264.198395 115.148408,264.140044 C115.923043,264.081692 116.697677,263.979577 117.472312,263.833698 C118.246946,263.687819 119.021581,263.61488 119.796215,263.61488 C119.939666,263.556528 120.018564,263.490883 120.032909,263.417943 C120.047254,263.345004 120.054427,263.279358 120.054427,263.221007 C120.054427,262.9876 119.982702,262.841721 119.839251,262.78337 C119.6958,262.725018 119.652765,262.564551 119.710145,262.301969 C119.968356,262.126915 120.154843,261.929978 120.269603,261.71116 C120.384364,261.492341 120.470434,261.258935 120.527815,261.010941 C120.585195,260.762947 120.62823,260.500365 120.65692,260.223195 C120.685611,259.946025 120.742991,259.676149 120.829061,259.413567 C120.915132,259.209336 121.05141,259.034282 121.237896,258.888403 C121.424382,258.742524 121.517625,258.567469 121.517625,258.363239 C121.517625,258.100656 121.460245,257.881838 121.345484,257.706783 C121.230724,257.531729 121.101618,257.371262 120.958167,257.225383 L120.958167,257.225383 L120.527815,256.787746 C120.384364,256.641867 120.283948,256.466813 120.226568,256.262582 C120.083117,256.116703 119.918149,256.03647 119.731663,256.021882 C119.545176,256.007294 119.365863,256 119.193722,256 C119.050271,256 118.892475,256.058352 118.720334,256.175055 C118.548193,256.291758 118.36888,256.423049 118.182394,256.568928 C117.995907,256.714807 117.816594,256.860686 117.644453,257.006565 C117.472312,257.152443 117.300171,257.254559 117.12803,257.31291 C116.927199,257.371262 116.755058,257.415026 116.611607,257.444201 C116.468156,257.473377 116.324705,257.487965 116.181254,257.487965 C116.037804,257.487965 115.88718,257.480671 115.729384,257.466083 C115.571588,257.451495 115.363585,257.444201 115.105373,257.444201 C114.847162,257.444201 114.631985,257.400438 114.459844,257.31291 C114.287703,257.225383 114.129907,257.137856 113.986457,257.050328 C113.843006,256.962801 113.706727,256.875274 113.577622,256.787746 C113.448516,256.700219 113.283547,256.656455 113.082716,256.656455 C112.996646,256.656455 112.846022,256.663749 112.630846,256.678337 C112.41567,256.692925 112.308082,256.729395 112.308082,256.787746 C112.308082,256.933625 112.394152,257.130562 112.566293,257.378556 C112.738434,257.62655 112.853195,257.779723 112.910575,257.838074 C113.197477,258.42159 113.340928,258.990518 113.340928,259.544858 C113.340928,260.390956 113.29072,261.207877 113.190304,261.995624 C113.089889,262.78337 112.996646,263.585704 112.910575,264.402626 C112.910575,264.606856 113.010991,264.876732 113.211822,265.212254 C113.412653,265.547775 113.627829,265.715536 113.857351,265.715536 Z M104.647807,266.371991 C104.934709,266.371991 105.149885,266.284464 105.293336,266.109409 C105.436787,265.934354 105.565892,265.737418 105.680653,265.5186 C105.795414,265.299781 105.938865,265.102845 106.111006,264.92779 C106.283147,264.752735 106.570048,264.665208 106.971711,264.665208 C108.348839,264.665208 109.295614,264.548505 109.812037,264.315098 C110.32846,264.081692 110.586672,263.848286 110.586672,263.61488 C110.586672,263.556528 110.615362,263.403355 110.672742,263.155361 C110.730123,262.907367 110.758813,262.754194 110.758813,262.695842 L110.758813,262.695842 L110.758813,259.938731 C110.816193,259.7345 110.873573,259.508388 110.930954,259.260394 C110.988334,259.0124 111.017024,258.757112 111.017024,258.49453 C111.017024,258.173596 110.859228,257.808899 110.543636,257.400438 C110.228045,256.991977 109.869418,256.787746 109.467755,256.787746 C109.123473,256.787746 108.850917,256.955507 108.650085,257.291028 C108.449254,257.62655 108.234078,257.896426 108.004557,258.100656 C107.602894,258.100656 107.28013,258.115244 107.036264,258.14442 C106.792397,258.173596 106.562876,258.188184 106.3477,258.188184 C106.132523,258.188184 105.917347,258.166302 105.702171,258.122538 C105.486994,258.078775 105.22161,257.983953 104.906019,257.838074 L104.906019,257.838074 L104.131384,257.66302 C103.873173,257.604668 103.614961,257.575492 103.35675,257.575492 C103.299369,257.575492 103.191781,257.582786 103.033985,257.597374 C102.876189,257.611962 102.718393,257.648432 102.560597,257.706783 C102.402802,257.765135 102.259351,257.838074 102.130245,257.925602 C102.001139,258.013129 101.936586,258.115244 101.936586,258.231947 C101.936586,258.436178 102.094382,258.611233 102.409974,258.757112 C102.725566,258.902991 102.955087,259.078045 103.098538,259.282276 C103.35675,259.749088 103.528891,260.230489 103.614961,260.726477 C103.701032,261.222465 103.744067,261.703866 103.744067,262.170678 C103.744067,262.695842 103.722549,263.199125 103.679514,263.680525 C103.636479,264.161926 103.614961,264.665208 103.614961,265.190372 C103.614961,265.452954 103.722549,265.715536 103.937725,265.978118 C104.152902,266.2407 104.389596,266.371991 104.647807,266.371991 Z M138.086197,290.223195 C137.741915,289.931437 137.483704,289.698031 137.311563,289.522976 C137.139422,289.347921 136.995971,289.318745 136.88121,289.435449 C136.82383,289.435449 136.723414,289.347921 136.579963,289.172867 C136.436512,288.997812 136.336097,288.910284 136.278717,288.910284 C135.934435,288.910284 135.61167,288.771699 135.310423,288.49453 C135.009177,288.21736 134.887243,288.049599 134.944624,287.991247 C134.428201,287.728665 133.868742,287.283735 133.266249,286.656455 C132.663755,286.029176 132.089952,285.343545 131.544839,284.599562 C130.999726,283.85558 130.547856,283.140773 130.189229,282.455142 C129.830601,281.769511 129.651288,281.251641 129.651288,280.901532 C129.450457,280.230489 129.278316,279.625091 129.134865,279.085339 C128.991414,278.545587 128.869481,278.005835 128.769065,277.466083 C128.66865,276.926331 128.596924,276.357403 128.553889,275.7593 C128.510854,275.161196 128.489336,274.453683 128.489336,273.636761 C128.632787,273.140773 129.020104,272.841721 129.651288,272.739606 C130.282472,272.637491 130.971036,272.586433 131.71698,272.586433 C131.77436,272.586433 131.881948,272.601021 132.039744,272.630197 C132.19754,272.659373 132.305128,272.673961 132.362509,272.673961 L132.362509,272.673961 L136.106576,272.673961 C136.250026,272.615609 136.407822,272.564551 136.579963,272.520788 C136.752104,272.477024 136.82383,272.323851 136.79514,272.061269 C136.565618,271.681984 136.328924,271.375638 136.085058,271.142232 C135.841191,270.908826 135.547117,270.631656 135.202835,270.310722 C134.743793,270.427425 134.34213,270.631656 133.997848,270.923414 C133.653566,271.215171 133.280594,271.448578 132.878932,271.623632 L132.878932,271.623632 L129.134865,271.623632 C128.962724,271.594457 128.776238,271.565281 128.575407,271.536105 C128.374575,271.506929 128.188089,271.47046 128.015948,271.426696 C127.843807,271.382932 127.700357,271.309993 127.585596,271.207877 C127.470835,271.105762 127.4278,270.952589 127.45649,270.748359 C127.45649,269.84391 127.499525,268.968636 127.585596,268.122538 C127.671666,267.276441 127.714702,266.342815 127.714702,265.321663 C127.714702,265.263311 127.700357,265.197666 127.671666,265.124726 C127.642976,265.051787 127.628631,264.986142 127.628631,264.92779 C127.628631,264.840263 127.650149,264.767323 127.693184,264.708972 C127.736219,264.65062 127.786427,264.548505 127.843807,264.402626 L127.843807,264.402626 L127.843807,261.908096 C127.958568,261.791393 128.023121,261.667396 128.037466,261.536105 C128.051811,261.404814 128.073329,261.280817 128.102019,261.164114 C128.130709,261.047411 128.188089,260.938001 128.27416,260.835886 C128.36023,260.733771 128.518026,260.653538 128.747548,260.595186 C128.890998,260.449307 128.998587,260.339898 129.070312,260.266958 C129.142037,260.194019 129.192245,260.12108 129.220935,260.04814 C129.249626,259.975201 129.263971,259.865791 129.263971,259.719912 L129.263971,259.719912 L129.263971,259.019694 C129.12052,258.815463 128.926861,258.647702 128.682995,258.516411 C128.439128,258.38512 128.24547,258.246535 128.102019,258.100656 L128.102019,258.100656 L127.198279,257.181619 C126.997447,257.03574 126.732063,256.933625 126.402126,256.875274 C126.07219,256.816922 125.778115,256.787746 125.519904,256.787746 C125.261692,256.962801 125.053689,257.057622 124.895893,257.07221 C124.738097,257.086798 124.616164,257.094092 124.530093,257.094092 C124.444023,257.094092 124.393815,257.130562 124.37947,257.203501 C124.365125,257.276441 124.357952,257.444201 124.357952,257.706783 L124.357952,257.706783 L124.960446,258.757112 L124.960446,258.888403 C124.989136,259.034282 125.017826,259.21663 125.046516,259.435449 C125.075206,259.654267 125.096724,259.880379 125.111069,260.113786 C125.125414,260.347192 125.161277,260.558716 125.218657,260.748359 C125.276037,260.938001 125.376453,261.061999 125.519904,261.12035 L125.519904,261.12035 L125.64901,261.382932 C125.64901,262.024799 125.627492,262.776076 125.584457,263.636761 C125.541421,264.497447 125.519904,265.380015 125.519904,266.284464 L125.519904,266.284464 L125.519904,266.634573 C125.519904,267.976659 125.484041,268.946754 125.412316,269.544858 C125.34059,270.142961 125.261692,270.536834 125.175622,270.726477 C125.089551,270.91612 125.017826,270.996353 124.960446,270.967177 C124.903065,270.938001 124.903065,270.952589 124.960446,271.010941 C124.702234,271.069292 124.487058,271.098468 124.314917,271.098468 L124.314917,271.098468 L123.669388,271.098468 C123.353796,271.098468 123.038204,271.08388 122.722612,271.054705 C122.407021,271.025529 122.091429,271.010941 121.775837,271.010941 C121.632386,271.010941 121.510453,271.032823 121.410037,271.076586 C121.309622,271.12035 121.259414,271.215171 121.259414,271.36105 C121.259414,271.565281 121.345484,271.754923 121.517625,271.929978 C121.689766,272.105033 121.890598,272.258206 122.120119,272.389497 C122.34964,272.520788 122.586334,272.630197 122.830201,272.717724 C123.074067,272.805252 123.267726,272.849015 123.411177,272.849015 C123.640698,272.849015 123.820011,272.81984 123.949117,272.761488 C124.078223,272.703136 124.214501,272.673961 124.357952,272.673961 C124.558783,272.673961 124.752442,272.841721 124.938928,273.177243 C125.125414,273.512764 125.189967,273.753465 125.132587,273.899344 C124.989136,274.307805 124.874375,274.840263 124.788305,275.496718 C124.702234,276.153173 124.659199,276.75857 124.659199,277.31291 C124.659199,277.400438 124.666371,277.487965 124.680716,277.575492 L124.696855,277.706783 L124.696855,277.706783 L124.702234,277.838074 C124.472713,277.954778 124.336434,278.122538 124.293399,278.341357 C124.250364,278.560175 124.221674,278.793581 124.207329,279.041575 L124.207329,279.041575 L124.164293,279.785558 C124.149948,280.033552 124.07105,280.230489 123.9276,280.376368 C123.784149,280.84318 123.662215,281.273523 123.5618,281.667396 C123.461384,282.061269 123.411177,282.447848 123.411177,282.827133 C123.181655,282.973012 123.023859,283.155361 122.937789,283.374179 C122.851718,283.592998 122.787165,283.826404 122.74413,284.074398 C122.701095,284.322392 122.636542,284.555799 122.550471,284.774617 C122.464401,284.993435 122.32095,285.190372 122.120119,285.365427 L122.120119,285.365427 L122.034048,285.890591 C122.034048,285.919767 121.991013,285.985412 121.904943,286.087527 C121.818872,286.189643 121.732802,286.299052 121.646731,286.415755 C121.560661,286.532458 121.47459,286.641867 121.38852,286.743982 C121.302449,286.846098 121.259414,286.911743 121.259414,286.940919 C121.144653,287.436907 121.015548,287.845368 120.872097,288.166302 C120.728646,288.487236 120.57085,288.778993 120.398709,289.041575 C120.226568,289.304158 120.047254,289.552152 119.860768,289.785558 C119.674282,290.018964 119.480624,290.296134 119.279792,290.617068 C119.136342,290.821298 119.028753,291.032823 118.957028,291.251641 C118.885303,291.47046 118.734679,291.652808 118.505158,291.798687 C117.931355,292.382203 117.379069,292.856309 116.848301,293.221007 C116.317533,293.585704 115.793937,293.89205 115.277514,294.140044 C114.761091,294.388038 114.237496,294.606856 113.706727,294.796499 C113.175959,294.986142 112.623674,295.212254 112.04987,295.474836 C111.93511,295.474836 111.820349,295.511306 111.705588,295.584245 C111.590828,295.657185 111.562137,295.752006 111.619518,295.868709 C111.762969,295.868709 111.877729,295.890591 111.9638,295.934354 C112.04987,295.978118 112.164631,296 112.308082,296 C112.365462,295.883297 112.494568,295.788476 112.695399,295.715536 C112.89623,295.642597 113.111406,295.606127 113.340928,295.606127 C113.74259,295.460248 114.172943,295.270605 114.631985,295.037199 C115.091028,294.803793 115.521381,294.68709 115.923043,294.68709 C116.525536,294.278629 117.056304,293.884756 117.515347,293.50547 C117.97439,293.126185 118.447778,292.732312 118.93551,292.323851 C119.394553,291.944566 119.846423,291.572575 120.291121,291.207877 C120.735818,290.84318 121.144653,290.339898 121.517625,289.698031 C121.517625,289.639679 121.603696,289.508388 121.775837,289.304158 C121.947978,289.099927 122.034048,288.968636 122.034048,288.910284 C122.091429,288.706054 122.177499,288.479942 122.29226,288.231947 C122.407021,287.983953 122.521781,287.816193 122.636542,287.728665 C122.665232,287.699489 122.71544,287.619256 122.787165,287.487965 C122.858891,287.356674 122.923444,287.218089 122.980824,287.07221 C123.038204,286.926331 123.095585,286.787746 123.152965,286.656455 C123.210345,286.525164 123.267726,286.444931 123.325106,286.415755 C123.468557,286.2407 123.576145,286.072939 123.64787,285.912473 C123.719596,285.752006 123.726768,285.569657 123.669388,285.365427 C123.755459,285.102845 123.891737,284.89132 124.078223,284.730853 C124.264709,284.570387 124.386642,284.37345 124.444023,284.140044 C124.759614,283.498177 124.996308,282.973012 125.154104,282.564551 C125.3119,282.15609 125.412316,281.827863 125.455351,281.579869 C125.498386,281.331875 125.519904,281.15682 125.519904,281.054705 L125.519904,281.054705 L125.519904,280.901532 C125.519904,280.814004 125.584457,280.675419 125.713562,280.485777 C125.842668,280.296134 125.907221,280.172137 125.907221,280.113786 C126.222813,279.355215 126.430817,278.574763 126.531232,277.772429 C126.631648,276.970095 126.681856,276.145879 126.681856,275.299781 C126.767926,275.299781 126.832479,275.226842 126.875514,275.080963 C126.918549,274.935084 126.968757,274.774617 127.026138,274.599562 C127.083518,274.424508 127.169588,274.271335 127.284349,274.140044 C127.39911,274.008753 127.542561,273.957695 127.714702,273.986871 C127.800772,273.986871 127.865325,274.045222 127.90836,274.161926 C127.951395,274.278629 127.972913,274.424508 127.972913,274.599562 L127.972913,274.599562 L127.972913,275.562363 C127.972913,276 127.951395,276.430343 127.90836,276.853392 C127.865325,277.276441 127.843807,277.692195 127.843807,278.100656 C127.843807,278.363239 127.85098,278.684172 127.865325,279.063457 C127.87967,279.442743 127.90836,279.822028 127.951395,280.201313 C127.994431,280.580598 128.051811,280.923414 128.123536,281.229759 C128.195262,281.536105 128.27416,281.718454 128.36023,281.776805 L128.36023,281.776805 L128.36023,283.877462 C128.503681,284.140044 128.611269,284.395332 128.682995,284.643326 C128.75472,284.89132 128.819273,285.13202 128.876653,285.365427 C129.020104,285.628009 129.192245,285.890591 129.393076,286.153173 C129.593908,286.415755 129.766049,286.678337 129.909499,286.940919 C130.569373,288.253829 131.37987,289.4938 132.340991,290.660832 C133.302112,291.827863 134.385165,292.81984 135.590153,293.636761 C135.762294,293.636761 135.898572,293.607586 135.998987,293.549234 C136.099403,293.490883 136.192646,293.432531 136.278717,293.374179 C136.364787,293.315828 136.465203,293.250182 136.579963,293.177243 C136.694724,293.104303 136.85252,293.038658 137.053351,292.980306 C137.340253,292.688549 137.663017,292.46973 138.021644,292.323851 C138.380271,292.177972 138.717381,292.061269 139.032973,291.973742 C139.348564,291.886214 139.599603,291.784099 139.786089,291.667396 C139.972576,291.550693 140.037128,291.375638 139.979748,291.142232 C139.721537,291.142232 139.499188,291.032823 139.312702,290.814004 C139.126216,290.595186 138.918212,290.485777 138.688691,290.485777 C138.63131,290.485777 138.51655,290.507659 138.344409,290.551422 C138.172268,290.595186 138.028817,290.617068 137.914056,290.617068 L137.914056,290.617068 L138.086197,290.223195 Z M116.181254,262.301969 C115.607451,262.301969 115.220134,262.148796 115.019303,261.842451 C114.818471,261.536105 114.718056,261.12035 114.718056,260.595186 L114.718056,260.595186 L114.718056,260.463895 C114.718056,259.7345 114.890197,259.311451 115.234479,259.194748 C115.578761,259.078045 115.951733,259.019694 116.353395,259.019694 C116.898509,259.019694 117.336034,259.099927 117.665971,259.260394 C117.995907,259.420861 118.160876,259.865791 118.160876,260.595186 C118.160876,261.003647 118.096323,261.324581 117.967217,261.557987 C117.838112,261.791393 117.680316,261.966448 117.49383,262.083151 C117.307343,262.199854 117.092167,262.2655 116.848301,262.280088 C116.604434,262.294675 116.382086,262.301969 116.181254,262.301969 Z M106.41823,263.35169 L106.197076,263.352298 C106.053625,263.26477 105.946037,263.097009 105.874312,262.849015 C105.802586,262.601021 105.745206,262.331145 105.702171,262.039387 C105.659135,261.747629 105.630445,261.477753 105.6161,261.229759 C105.601755,260.981765 105.594583,260.814004 105.594583,260.726477 C105.594583,260.493071 105.601755,260.28884 105.6161,260.113786 C105.630445,259.938731 105.680653,259.785558 105.766724,259.654267 C105.852794,259.522976 106.003418,259.413567 106.218594,259.326039 C106.43377,259.238512 106.742189,259.18016 107.143852,259.150985 C107.287302,259.150985 107.473789,259.187454 107.70331,259.260394 C107.932831,259.333333 108.090627,259.384391 108.176698,259.413567 C108.176698,259.501094 108.18387,259.661561 108.198215,259.894967 C108.21256,260.128373 108.219733,260.36178 108.219733,260.595186 L108.225112,260.945295 L108.225112,260.945295 L108.241251,261.295405 C108.255596,261.528811 108.262768,261.689278 108.262768,261.776805 C108.205388,262.185266 108.15518,262.491612 108.112145,262.695842 C108.06911,262.900073 107.983039,263.053246 107.853933,263.155361 C107.724828,263.257476 107.531169,263.315828 107.272957,263.330416 C107.014746,263.345004 106.656119,263.352298 106.197076,263.352298 L106.41823,263.35169 Z M129.522182,268.910284 C129.579562,268.851933 129.780394,268.73523 130.124676,268.560175 C130.468958,268.38512 130.698479,268.239241 130.81324,268.122538 C131.071451,267.859956 131.408561,267.677608 131.824568,267.575492 C132.240575,267.473377 132.462924,267.334792 132.491614,267.159737 C132.606375,267.101386 132.764171,267.043034 132.965002,266.984683 C133.165833,266.926331 133.352319,266.86798 133.52446,266.809628 C133.696601,266.751276 133.847225,266.685631 133.976331,266.612691 C134.105436,266.539752 134.169989,266.430343 134.169989,266.284464 C134.169989,265.96353 134.048056,265.642597 133.80419,265.321663 C133.560323,265.000729 133.294939,264.716265 133.008037,264.468271 C132.721136,264.220277 132.441407,264.016047 132.16885,263.85558 C131.896293,263.695113 131.74567,263.61488 131.71698,263.61488 C131.602219,263.61488 131.465941,263.768053 131.308145,264.074398 C131.150349,264.380744 130.992553,264.738147 130.834757,265.146608 C130.676961,265.555069 130.526338,265.970824 130.382887,266.393873 C130.239436,266.816922 130.124676,267.130562 130.038605,267.334792 C129.866464,267.655726 129.723013,267.889132 129.608253,268.035011 C129.493492,268.18089 129.335696,268.38512 129.134865,268.647702 C129.134865,268.793581 129.170728,268.873815 129.242453,268.888403 C129.314178,268.902991 129.407421,268.910284 129.522182,268.910284 Z M101.678375,281.95186 C102.137417,281.95186 102.682531,281.937272 103.313714,281.908096 C103.944898,281.87892 104.590427,281.842451 105.250301,281.798687 C105.910174,281.754923 106.527013,281.71116 107.100816,281.667396 C107.67462,281.623632 108.119317,281.601751 108.434909,281.601751 C108.865262,281.601751 109.302787,281.594457 109.747484,281.579869 C110.192182,281.565281 110.615362,281.514223 111.017024,281.426696 C112.04987,281.339168 113.082716,281.309993 114.115562,281.339168 C115.148408,281.368344 116.181254,281.309993 117.2141,281.164114 C117.300171,281.164114 117.414932,281.134938 117.558382,281.076586 C117.701833,281.018235 117.816594,280.989059 117.902664,280.989059 L117.902664,280.989059 L121.259414,280.989059 C121.603696,280.989059 121.790182,280.908826 121.818872,280.748359 C121.847562,280.587892 121.861907,280.463895 121.861907,280.376368 C121.861907,279.997082 121.668249,279.595915 121.280932,279.172867 C120.893614,278.749818 120.57085,278.450766 120.312638,278.275711 C120.255258,278.334063 120.154843,278.414296 120.011392,278.516411 C119.867941,278.618527 119.767525,278.713348 119.710145,278.800875 C119.509314,278.917578 119.373035,279.048869 119.30131,279.194748 C119.229585,279.340627 119.150687,279.479212 119.064616,279.610503 C118.978546,279.741794 118.856612,279.858497 118.698817,279.960613 C118.541021,280.062728 118.275637,280.113786 117.902664,280.113786 C116.554227,280.113786 115.313377,280.128373 114.180115,280.157549 C113.046854,280.186725 112.02118,280.201313 111.103095,280.201313 L111.103095,280.201313 L110.930954,280.201313 C110.873573,280.201313 110.816193,280.172137 110.758813,280.113786 L110.758813,280.113786 L106.627429,280.113786 C106.541358,280.08461 106.426597,280.055434 106.283147,280.026258 C106.139696,279.997082 105.996245,279.975201 105.852794,279.960613 C105.709343,279.946025 105.58741,279.916849 105.486994,279.873085 C105.386579,279.829322 105.336371,279.763676 105.336371,279.676149 C105.336371,279.53027 105.379406,279.377097 105.465477,279.21663 C105.551547,279.056163 105.64479,278.902991 105.745206,278.757112 L105.89045,278.532823 L105.89045,278.532823 L106.024935,278.297593 C106.111006,278.137126 106.139696,277.983953 106.111006,277.838074 C106.197076,277.575492 106.354872,277.400438 106.584393,277.31291 C106.813915,277.225383 107.072126,277.167031 107.359028,277.137856 C107.64593,277.10868 107.911314,277.094092 108.15518,277.094092 C108.399046,277.094092 108.57836,277.050328 108.693121,276.962801 C109.869418,276.962801 110.938126,276.919037 111.899247,276.83151 C112.860367,276.743982 113.79997,276.700219 114.718056,276.700219 C115.40662,276.700219 115.880008,276.765864 116.138219,276.897155 C116.396431,277.028446 116.590089,277.181619 116.719195,277.356674 C116.848301,277.531729 116.984579,277.684902 117.12803,277.816193 C117.271481,277.947484 117.558382,278.013129 117.988735,278.013129 C118.189566,278.013129 118.347362,277.983953 118.462123,277.925602 C118.576883,277.86725 118.670126,277.772429 118.741852,277.641138 C118.813577,277.509847 118.87813,277.34938 118.93551,277.159737 C118.992891,276.970095 119.078961,276.75857 119.193722,276.525164 C119.222412,276.350109 119.265447,276.20423 119.322828,276.087527 L119.322828,276.087527 L119.408898,275.737418 C119.437588,275.620715 119.451933,275.533187 119.451933,275.474836 C119.451933,275.066375 119.423243,274.694384 119.365863,274.358862 C119.308483,274.023341 119.279792,273.695113 119.279792,273.374179 C119.279792,272.965718 119.33,272.622903 119.430416,272.345733 C119.530831,272.068563 119.566694,271.740336 119.538004,271.36105 C119.480624,271.273523 119.444761,271.200584 119.430416,271.142232 C119.416071,271.08388 119.416071,270.996353 119.430416,270.87965 C119.444761,270.762947 119.451933,270.60248 119.451933,270.398249 L119.451933,270.398249 L119.451933,269.522976 L120.312638,268.647702 L120.312638,268.38512 C120.312638,268.210066 120.212223,267.969365 120.011392,267.66302 C119.810561,267.356674 119.581039,267.064916 119.322828,266.787746 C119.064616,266.510576 118.806405,266.262582 118.548193,266.043764 C118.289982,265.824945 118.103496,265.715536 117.988735,265.715536 C117.759214,265.715536 117.536865,265.854121 117.321689,266.131291 C117.106512,266.408461 116.869818,266.547046 116.611607,266.547046 C116.296015,266.722101 116.037804,266.955507 115.836972,267.247265 C115.636141,267.539023 115.37793,267.684902 115.062338,267.684902 C114.144252,267.684902 113.405481,267.706783 112.846022,267.750547 C112.286564,267.794311 111.791659,267.845368 111.361306,267.90372 C110.930954,267.962071 110.536464,268.013129 110.177837,268.056893 C109.81921,268.100656 109.410375,268.122538 108.951332,268.122538 C108.721811,268.122538 108.564015,268.115244 108.477944,268.100656 C108.391874,268.086069 108.234078,268.035011 108.004557,267.947484 L108.004557,267.947484 L104.647807,267.947484 C104.446976,267.947484 104.303525,267.998541 104.217455,268.100656 C104.131384,268.202772 104.016623,268.297593 103.873173,268.38512 C103.672341,268.443472 103.399785,268.49453 103.055503,268.538293 C102.711221,268.582057 102.467354,268.73523 102.323904,268.997812 C102.467354,269.260394 102.617978,269.508388 102.775774,269.741794 C102.93357,269.975201 103.084193,270.223195 103.227644,270.485777 C103.371095,270.894238 103.449993,271.302699 103.464338,271.71116 C103.478683,272.119621 103.485855,272.528082 103.485855,272.936543 C103.485855,273.78264 103.464338,274.606856 103.421302,275.40919 C103.378267,276.211524 103.35675,277.021152 103.35675,277.838074 C103.35675,278.334063 103.428475,278.713348 103.571926,278.97593 C103.715377,279.238512 103.772757,279.53027 103.744067,279.851204 C103.744067,279.880379 103.701032,279.938731 103.614961,280.026258 C103.557581,280.055434 103.514545,280.08461 103.485855,280.113786 L103.485855,280.113786 L100.129106,280.113786 C100.071725,280.113786 100.035863,280.179431 100.021518,280.310722 C100.007173,280.442013 100,280.551422 100,280.63895 C100,281.018235 100.050208,281.295405 100.150623,281.47046 C100.251039,281.645514 100.387317,281.769511 100.559458,281.842451 C100.731599,281.91539 100.918085,281.95186 101.118917,281.95186 L101.118917,281.95186 L101.678375,281.95186 Z M113.943421,271.798687 C113.68521,271.798687 113.477206,271.703866 113.31941,271.514223 C113.161614,271.324581 113.082716,271.098468 113.082716,270.835886 C113.082716,270.252371 113.147269,269.785558 113.276375,269.435449 C113.405481,269.085339 113.79997,268.910284 114.459844,268.910284 C115.033648,268.910284 115.49269,268.961342 115.836972,269.063457 C116.181254,269.165573 116.353395,269.552152 116.353395,270.223195 C116.353395,270.777535 116.181254,271.178702 115.836972,271.426696 C115.49269,271.67469 114.861507,271.798687 113.943421,271.798687 Z M107.020723,271.885607 L106.713499,271.886214 C106.311837,271.886214 106.06797,271.733042 105.9819,271.426696 C105.895829,271.12035 105.852794,270.80671 105.852794,270.485777 C105.852794,270.194019 105.874312,269.960613 105.917347,269.785558 C105.960382,269.610503 106.06797,269.479212 106.240111,269.391685 C106.412252,269.304158 106.677636,269.245806 107.036264,269.21663 C107.394891,269.187454 107.889796,269.172867 108.52098,269.172867 C108.836572,269.172867 109.173681,269.245806 109.532308,269.391685 C109.890935,269.537564 110.070249,269.814734 110.070249,270.223195 C110.070249,270.631656 110.012868,270.945295 109.898108,271.164114 C109.783347,271.382932 109.596861,271.550693 109.338649,271.667396 C109.080438,271.784099 108.736156,271.849745 108.305803,271.864333 C107.875451,271.87892 107.344683,271.886214 106.713499,271.886214 L107.020723,271.885607 Z M115.40662,275.474836 L113.168787,275.474836 C113.111406,275.474836 113.061199,275.40919 113.018163,275.277899 C112.975128,275.146608 112.939265,274.993435 112.910575,274.818381 C112.881885,274.643326 112.860367,274.475565 112.846022,274.315098 C112.831677,274.154632 112.824505,274.045222 112.824505,273.986871 C112.824505,273.57841 113.025336,273.330416 113.426998,273.242888 C113.828661,273.155361 114.230323,273.111597 114.631985,273.111597 L114.631985,273.111597 L116.095184,273.111597 C116.238635,273.169949 116.317533,273.279358 116.331878,273.439825 C116.346223,273.600292 116.353395,273.753465 116.353395,273.899344 C116.353395,274.220277 116.296015,274.563093 116.181254,274.92779 C116.066494,275.292487 115.808282,275.474836 115.40662,275.474836 L115.40662,275.474836 Z M107.918486,275.824945 C107.660275,275.824945 107.409236,275.817651 107.165369,275.803063 C106.921503,275.788476 106.699154,275.737418 106.498323,275.649891 C106.297492,275.562363 106.139696,275.431072 106.024935,275.256018 C105.910174,275.080963 105.852794,274.832969 105.852794,274.512035 C105.852794,273.928519 105.9819,273.563822 106.240111,273.417943 C106.498323,273.272064 106.82826,273.199125 107.229922,273.199125 C107.373373,273.199125 107.602894,273.191831 107.918486,273.177243 C108.234078,273.162655 108.542497,273.169949 108.843744,273.199125 C109.144991,273.228301 109.410375,273.293946 109.639896,273.396061 C109.869418,273.498177 109.984178,273.665937 109.984178,273.899344 C109.984178,275.183078 109.295614,275.824945 107.918486,275.824945 Z M106.111006,294.818381 C106.426597,294.818381 106.699154,294.723559 106.928675,294.533917 C107.158197,294.344274 107.344683,294.118162 107.488134,293.85558 C107.631584,293.592998 107.739173,293.323122 107.810898,293.045952 C107.882623,292.768782 107.918486,292.54267 107.918486,292.367615 C107.918486,291.959154 108.033247,291.630926 108.262768,291.382932 C108.49229,291.134938 108.750501,291.010941 109.037403,291.010941 C109.123473,291.010941 109.259751,291.018235 109.446238,291.032823 C109.632724,291.047411 109.81921,291.069292 110.005696,291.098468 C110.192182,291.127644 110.35715,291.142232 110.500601,291.142232 L110.500601,291.142232 L110.758813,291.142232 C110.930954,291.142232 111.131785,291.12035 111.361306,291.076586 C111.590828,291.032823 111.820349,291.010941 112.04987,291.010941 C112.222011,291.010941 112.343944,291.032823 112.41567,291.076586 C112.487395,291.12035 112.652364,291.142232 112.910575,291.142232 C113.254857,291.142232 113.591967,291.076586 113.921904,290.945295 C114.251841,290.814004 114.631985,290.748359 115.062338,290.748359 L115.062338,290.748359 L117.730523,290.748359 L117.988735,290.485777 C118.017425,290.427425 118.038943,290.310722 118.053288,290.135667 C118.067633,289.960613 118.081978,289.763676 118.096323,289.544858 C118.110668,289.326039 118.125013,289.114515 118.139358,288.910284 C118.153703,288.706054 118.160876,288.530999 118.160876,288.38512 C118.160876,288.093363 118.125013,287.90372 118.053288,287.816193 C117.981562,287.728665 117.960045,287.524435 117.988735,287.203501 C118.046115,287.174325 118.117841,287.07221 118.203911,286.897155 C118.289982,286.722101 118.376052,286.532458 118.462123,286.328228 C118.548193,286.123997 118.619919,285.912473 118.677299,285.693654 C118.734679,285.474836 118.763369,285.307075 118.763369,285.190372 C118.763369,284.956966 118.655781,284.760029 118.440605,284.599562 C118.225429,284.439096 118.074805,284.285923 117.988735,284.140044 C117.902664,284.023341 117.802249,283.85558 117.687488,283.636761 C117.572727,283.417943 117.443622,283.213713 117.300171,283.02407 C117.15672,282.834427 116.991752,282.666667 116.805265,282.520788 C116.618779,282.374909 116.410776,282.301969 116.181254,282.301969 C116.037804,282.301969 115.844145,282.382203 115.600278,282.54267 C115.356412,282.703136 115.098201,282.892779 114.825644,283.111597 C114.553087,283.330416 114.287703,283.54194 114.029492,283.746171 C113.77128,283.950401 113.541759,284.081692 113.340928,284.140044 C113.254857,284.140044 113.075544,284.183807 112.802987,284.271335 C112.530431,284.358862 112.365462,284.402626 112.308082,284.402626 C111.103095,284.402626 110.027213,284.395332 109.080438,284.380744 C108.133662,284.366156 107.143852,284.285923 106.111006,284.140044 C105.852794,284.081692 105.601755,284.110868 105.357889,284.227571 C105.114022,284.344274 104.877328,284.402626 104.647807,284.402626 L104.647807,284.402626 L104.088349,284.402626 C103.858828,284.402626 103.636479,284.417214 103.421302,284.446389 C103.206126,284.475565 103.01964,284.526623 102.861844,284.599562 C102.704048,284.672502 102.65384,284.781911 102.711221,284.92779 C102.797291,285.044493 102.926397,285.146608 103.098538,285.234136 C103.270679,285.321663 103.435648,285.401896 103.593443,285.474836 C103.751239,285.547775 103.887518,285.620715 104.002278,285.693654 C104.117039,285.766594 104.160074,285.832239 104.131384,285.890591 C104.246145,286.123997 104.34656,286.328228 104.432631,286.503282 C104.518701,286.678337 104.590427,286.838804 104.647807,286.984683 C104.705187,287.130562 104.748223,287.291028 104.776913,287.466083 C104.805603,287.641138 104.819948,287.859956 104.819948,288.122538 C104.819948,288.997812 104.776913,289.836616 104.690842,290.63895 C104.604772,291.441284 104.561737,292.309263 104.561737,293.242888 C104.561737,293.651349 104.733878,294.016047 105.07816,294.33698 C105.422442,294.657914 105.766724,294.818381 106.111006,294.818381 Z M111.78133,289.697155 L111.619518,289.698031 C111.045714,289.698031 110.579499,289.676149 110.220872,289.632385 C109.862245,289.588621 109.439065,289.56674 108.951332,289.56674 C108.434909,289.56674 108.133662,289.326039 108.047592,288.844639 C107.961521,288.363239 107.918486,287.90372 107.918486,287.466083 C107.918486,287.086798 107.961521,286.773158 108.047592,286.525164 C108.133662,286.27717 108.334494,286.087527 108.650085,285.956236 C108.965677,285.824945 109.431892,285.737418 110.048731,285.693654 C110.66557,285.649891 111.504757,285.628009 112.566293,285.628009 C112.623674,285.628009 112.81016,285.598833 113.125752,285.540481 C113.441343,285.48213 113.627829,285.452954 113.68521,285.452954 C114.029492,285.452954 114.287703,285.555069 114.459844,285.7593 C114.631985,285.96353 114.746746,286.211524 114.804126,286.503282 C114.861507,286.79504 114.890197,287.10868 114.890197,287.444201 L114.890197,287.444201 L114.890197,288.38512 C114.890197,288.706054 114.768264,288.954048 114.524397,289.129103 C114.280531,289.304158 113.986457,289.435449 113.642175,289.522976 C113.297893,289.610503 112.939265,289.661561 112.566293,289.676149 C112.193321,289.690737 111.877729,289.698031 111.619518,289.698031 L111.78133,289.697155 Z" id="兽"></path>
                </g>
            </g>
        </g>
    </g>
</svg>